999
dxfrw 0.6.3
  0
SECTION
  2
HEADER
  9
$ACADVER
  1
AC1021
  9
$DWGCODEPAGE
  3
ANSI_1252
  9
$INSBASE
 10
0
 20
0
 30
0
  9
$EXTMIN
 10
264.02516078698
 20
107.6163586919033
 30
0
  9
$EXTMAX
 10
481.8539799814718
 20
168.37926194698
 30
0
  9
$LIMMIN
 10
0
 20
0
  9
$LIMMAX
 10
420
 20
297
  9
$ORTHOMODE
 70
    0
  9
$REGENMODE
 70
    1
  9
$FILLMODE
 70
    1
  9
$QTEXTMODE
 70
    0
  9
$MIRRTEXT
 70
    0
  9
$LTSCALE
 40
1
  9
$ATTMODE
 70
    0
  9
$TEXTSIZE
 40
2.5
  9
$TRACEWID
 40
15.68
  9
$TEXTSTYLE
  7
STANDARD
  9
$CLAYER
  8
0
  9
$CELTYPE
  6
BYLAYER
  9
$CECOLOR
 62
  256
  9
$CELTSCALE
 40
1
  9
$DISPSILH
 70
    0
  9
$DIMSCALE
 40
2.5
  9
$DIMASZ
 40
2.5
  9
$DIMEXO
 40
0.625
  9
$DIMDLI
 40
3.75
  9
$DIMRND
 40
0
  9
$DIMDLE
 40
0
  9
$DIMEXE
 40
1.25
  9
$DIMTP
 40
0
  9
$DIMTM
 40
0
  9
$DIMTXT
 40
2.5
  9
$DIMCEN
 40
2.5
  9
$DIMTSZ
 40
0
  9
$DIMTOL
 70
    0
  9
$DIMLIM
 70
    0
  9
$DIMTIH
 70
    0
  9
$DIMTOH
 70
    0
  9
$DIMSE1
 70
    0
  9
$DIMSE2
 70
    0
  9
$DIMTAD
 70
    1
  9
$DIMZIN
 70
    8
  9
$DIMBLK
  1

  9
$DIMASO
 70
    1
  9
$DIMSHO
 70
    1
  9
$DIMPOST
  1

  9
$DIMAPOST
  1

  9
$DIMALT
 70
    0
  9
$DIMALTD
 70
    3
  9
$DIMALTF
 40
0.03937
  9
$DIMLFAC
 40
1
  9
$DIMTOFL
 70
    1
  9
$DIMTVP
 40
0
  9
$DIMTIX
 70
    0
  9
$DIMSOXD
 70
    0
  9
$DIMSAH
 70
    0
  9
$DIMBLK1
  1

  9
$DIMBLK2
  1

  9
$DIMSTYLE
  2
STANDARD
  9
$DIMCLRD
 70
    0
  9
$DIMCLRE
 70
    0
  9
$DIMCLRT
 70
    0
  9
$DIMTFAC
 40
1
  9
$DIMGAP
 40
0.625
  9
$DIMJUST
 70
    0
  9
$DIMSD1
 70
    0
  9
$DIMSD2
 70
    0
  9
$DIMTOLJ
 70
    0
  9
$DIMTZIN
 70
    8
  9
$DIMALTZ
 70
    0
  9
$DIMALTTZ
 70
    0
  9
$DIMUPT
 70
    0
  9
$DIMDEC
 70
    2
  9
$DIMTDEC
 70
    2
  9
$DIMALTU
 70
    2
  9
$DIMALTTD
 70
    3
  9
$DIMTXSTY
  7
STANDARD
  9
$DIMAUNIT
 70
    0
  9
$DIMADEC
 70
    0
  9
$DIMALTRND
 40
0
  9
$DIMAZIN
 70
    0
  9
$DIMDSEP
 70
   44
  9
$DIMATFIT
 70
    3
  9
$DIMFRAC
 70
    0
  9
$DIMLDRBLK
  1
STANDARD
  9
$DIMLUNIT
 70
    2
  9
$DIMLWD
 70
   -2
  9
$DIMLWE
 70
   -2
  9
$DIMTMOVE
 70
    0
  9
$DIMFXL
 40
1
  9
$DIMFXLON
 70
    0
  9
$DIMJOGANG
 40
0.7854
  9
$DIMTFILL
 70
    0
  9
$DIMTFILLCLR
 70
    0
  9
$DIMARCSYM
 70
    0
  9
$DIMLTYPE
  6

  9
$DIMLTEX1
  6

  9
$DIMLTEX2
  6

  9
$LUNITS
 70
    2
  9
$LUPREC
 70
    4
  9
$SKETCHINC
 40
1
  9
$FILLETRAD
 40
0
  9
$AUNITS
 70
    0
  9
$AUPREC
 70
    2
  9
$MENU
  1
.
  9
$ELEVATION
 40
0
  9
$PELEVATION
 40
0
  9
$THICKNESS
 40
0
  9
$LIMCHECK
 70
    0
  9
$CHAMFERA
 40
0
  9
$CHAMFERB
 40
0
  9
$CHAMFERC
 40
0
  9
$CHAMFERD
 40
0
  9
$SKPOLY
 70
    0
  9
$USRTIMER
 70
    1
  9
$ANGBASE
 50
0
  9
$ANGDIR
 70
    0
  9
$PDMODE
 70
   34
  9
$PDSIZE
 40
0
  9
$PLINEWID
 40
0
  9
$SPLFRAME
 70
    0
  9
$SPLINETYPE
 70
    2
  9
$SPLINESEGS
 70
    8
  9
$HANDSEED
  5
20000
  9
$SURFTAB1
 70
    6
  9
$SURFTAB2
 70
    6
  9
$SURFTYPE
 70
    6
  9
$SURFU
 70
    6
  9
$SURFV
 70
    6
  9
$UCSBASE
  2

  9
$UCSNAME
  2

  9
$UCSORG
 10
0
 20
0
 30
0
  9
$UCSXDIR
 10
1
 20
0
 30
0
  9
$UCSYDIR
 10
0
 20
1
 30
0
  9
$UCSORTHOREF
  2

  9
$UCSORTHOVIEW
 70
    0
  9
$UCSORGTOP
 10
0
 20
0
 30
0
  9
$UCSORGBOTTOM
 10
0
 20
0
 30
0
  9
$UCSORGLEFT
 10
0
 20
0
 30
0
  9
$UCSORGRIGHT
 10
0
 20
0
 30
0
  9
$UCSORGFRONT
 10
0
 20
0
 30
0
  9
$UCSORGBACK
 10
0
 20
0
 30
0
  9
$PUCSBASE
  2

  9
$PUCSNAME
  2

  9
$PUCSORG
 10
0
 20
0
 30
0
  9
$PUCSXDIR
 10
1
 20
0
 30
0
  9
$PUCSYDIR
 10
0
 20
1
 30
0
  9
$PUCSORTHOREF
  2

  9
$PUCSORTHOVIEW
 70
    0
  9
$PUCSORGTOP
 10
0
 20
0
 30
0
  9
$PUCSORGBOTTOM
 10
0
 20
0
 30
0
  9
$PUCSORGLEFT
 10
0
 20
0
 30
0
  9
$PUCSORGRIGHT
 10
0
 20
0
 30
0
  9
$PUCSORGFRONT
 10
0
 20
0
 30
0
  9
$PUCSORGBACK
 10
0
 20
0
 30
0
  9
$USERI1
 70
    0
  9
$USERI2
 70
    0
  9
$USERI3
 70
    0
  9
$USERI4
 70
    0
  9
$USERI5
 70
    0
  9
$USERR1
 40
0
  9
$USERR2
 40
0
  9
$USERR3
 40
0
  9
$USERR4
 40
0
  9
$USERR5
 40
0
  9
$WORLDVIEW
 70
    1
  9
$SHADEDGE
 70
    3
  9
$SHADEDIF
 70
   70
  9
$TILEMODE
 70
    1
  9
$MAXACTVP
 70
   64
  9
$PINSBASE
 10
0
 20
0
 30
0
  9
$PLIMCHECK
 70
    0
  9
$PEXTMIN
 10
0
 20
0
 30
0
  9
$PEXTMAX
 10
0
 20
0
 30
0
  9
$SNAPSTYLE
 70
    0
  9
$PLIMMIN
 10
0
 20
0
  9
$PLIMMAX
 10
210
 20
297
  9
$UNITMODE
 70
    0
  9
$VISRETAIN
 70
    1
  9
$PLINEGEN
 70
    0
  9
$PSLTSCALE
 70
    1
  9
$TREEDEPTH
 70
 3020
  9
$CMLSTYLE
  2
Standard
  9
$CMLJUST
 70
    0
  9
$CMLSCALE
 40
20
  9
$PROXYGRAPHICS
 70
    1
  9
$MEASUREMENT
 70
    1
  9
$CELWEIGHT
370
   -1
  9
$ENDCAPS
280
    0
  9
$JOINSTYLE
280
    0
  9
$LWDISPLAY
290
    0
  9
$INSUNITS
 70
    4
  9
$HYPERLINKBASE
  1

  9
$STYLESHEET
  1

  9
$XEDIT
290
    1
  9
$CEPSNTYPE
380
    0
  9
$PSTYLEMODE
290
    1
  9
$EXTNAMES
290
    1
  9
$PSVPSCALE
 40
1
  9
$OLESTARTUP
290
    0
  9
$SORTENTS
280
  127
  9
$INDEXCTL
280
    0
  9
$HIDETEXT
280
    1
  9
$XCLIPFRAME
290
    0
  9
$HALOGAP
280
    0
  9
$OBSCOLOR
 70
  257
  9
$OBSLTYPE
280
    0
  9
$INTERSECTIONDISPLAY
280
    0
  9
$INTERSECTIONCOLOR
 70
  257
  9
$DIMASSOC
280
    1
  9
$PROJECTNAME
  1

  9
$CAMERADISPLAY
290
    0
  9
$LENSLENGTH
 40
50
  9
$CAMERAHEIGHT
 40
0
  9
$STEPSPERSEC
 40
2
  9
$STEPSIZE
 40
50
  9
$3DDWFPREC
 40
2
  9
$PSOLWIDTH
 40
5
  9
$PSOLHEIGHT
 40
80
  9
$LOFTANG1
 40
1.570796326794897
  9
$LOFTANG2
 40
1.570796326794897
  9
$LOFTMAG1
 40
0
  9
$LOFTMAG2
 40
0
  9
$LOFTPARAM
 70
    7
  9
$LOFTNORMALS
280
    1
  9
$LATITUDE
 40
1
  9
$LONGITUDE
 40
1
  9
$NORTHDIRECTION
 40
0
  9
$TIMEZONE
 70
-8000
  9
$LIGHTGLYPHDISPLAY
280
    1
  9
$TILEMODELIGHTSYNCH
280
    1
  9
$SOLIDHIST
280
    1
  9
$SHOWHIST
280
    1
  9
$DWFFRAME
280
    2
  9
$DGNFRAME
280
    0
  9
$REALWORLDSCALE
290
    1
  9
$INTERFERECOLOR
 62
    1
  9
$CSHADOW
280
    0
  9
$SHADOWPLANELOCATION
 40
0
  0
ENDSEC
  0
SECTION
  2
CLASSES
  0
ENDSEC
  0
SECTION
  2
TABLES
  0
TABLE
  2
VPORT
  5
8
330
0
100
AcDbSymbolTable
 70
    1
  0
VPORT
  5
31
330
2
100
AcDbSymbolTableRecord
100
AcDbViewportTableRecord
  2
*ACTIVE
 70
    0
 10
0
 20
0
 11
1
 21
1
 12
412.375
 22
147.5
 13
0
 23
0
 14
10
 24
10
 15
10
 25
10
 16
0
 26
0
 36
1
 17
0
 27
0
 37
0
 40
288.5
 41
2.603986135181976
 42
50
 43
0
 44
0
 50
0
 51
0
 71
    0
 72
  100
 73
    1
 74
    3
 75
    0
 76
    1
 77
    0
 78
    0
281
    0
 65
    1
110
0
120
0
130
0
111
1
121
0
131
0
112
0
122
1
132
0
 79
    0
146
0
348
10020
 60
    7
 61
    5
292
1
282
    1
141
0
142
0
 63
  250
421
3358443
  0
ENDTAB
  0
TABLE
  2
LTYPE
  5
5
330
0
100
AcDbSymbolTable
 70
    4
  0
LTYPE
  5
14
330
5
100
AcDbSymbolTableRecord
100
AcDbLinetypeTableRecord
  2
ByBlock
 70
    0
  3

 72
   65
 73
    0
 40
0
  0
LTYPE
  5
15
330
5
100
AcDbSymbolTableRecord
100
AcDbLinetypeTableRecord
  2
ByLayer
 70
    0
  3

 72
   65
 73
    0
 40
0
  0
LTYPE
  5
16
330
5
100
AcDbSymbolTableRecord
100
AcDbLinetypeTableRecord
  2
Continuous
 70
    0
  3
Solid line
 72
   65
 73
    0
 40
0
  0
LTYPE
  5
32
330
5
100
AcDbSymbolTableRecord
100
AcDbLinetypeTableRecord
  2
DOT
 70
    0
  3
Dot . . . . . . . . . . . . . . . . . . . . . .
 72
   65
 73
    2
 40
6.35
 49
0
 74
    0
 49
-6.35
 74
    0
  0
LTYPE
  5
33
330
5
100
AcDbSymbolTableRecord
100
AcDbLinetypeTableRecord
  2
DOTTINY
 70
    0
  3
Dot (.15x) .....................................
 72
   65
 73
    2
 40
0.9525
 49
0
 74
    0
 49
-0.9525
 74
    0
  0
LTYPE
  5
34
330
5
100
AcDbSymbolTableRecord
100
AcDbLinetypeTableRecord
  2
DOT2
 70
    0
  3
Dot (.5x) .....................................
 72
   65
 73
    2
 40
3.175
 49
0
 74
    0
 49
-3.175
 74
    0
  0
LTYPE
  5
35
330
5
100
AcDbSymbolTableRecord
100
AcDbLinetypeTableRecord
  2
DOTX2
 70
    0
  3
Dot (2x) .  .  .  .  .  .  .  .  .  .  .  .  .
 72
   65
 73
    2
 40
12.7
 49
0
 74
    0
 49
-12.7
 74
    0
  0
LTYPE
  5
36
330
5
100
AcDbSymbolTableRecord
100
AcDbLinetypeTableRecord
  2
DASHED
 70
    0
  3
Dashed _ _ _ _ _ _ _ _ _ _ _ _ _ _ _ _ _
 72
   65
 73
    2
 40
19.05
 49
12.7
 74
    0
 49
-6.35
 74
    0
  0
LTYPE
  5
37
330
5
100
AcDbSymbolTableRecord
100
AcDbLinetypeTableRecord
  2
DASHEDTINY
 70
    0
  3
Dashed (.15x) _ _ _ _ _ _ _ _ _ _ _ _ _ _ _ _ _
 72
   65
 73
    2
 40
2.8575
 49
1.905
 74
    0
 49
-0.9525
 74
    0
  0
LTYPE
  5
38
330
5
100
AcDbSymbolTableRecord
100
AcDbLinetypeTableRecord
  2
DASHED2
 70
    0
  3
Dashed (.5x) _ _ _ _ _ _ _ _ _ _ _ _ _ _ _ _ _
 72
   65
 73
    2
 40
9.524999999999999
 49
6.35
 74
    0
 49
-3.175
 74
    0
  0
LTYPE
  5
39
330
5
100
AcDbSymbolTableRecord
100
AcDbLinetypeTableRecord
  2
DASHEDX2
 70
    0
  3
Dashed (2x) ____  ____  ____  ____  ____  ___
 72
   65
 73
    2
 40
38.09999999999999
 49
25.4
 74
    0
 49
-12.7
 74
    0
  0
LTYPE
  5
3A
330
5
100
AcDbSymbolTableRecord
100
AcDbLinetypeTableRecord
  2
DASHDOT
 70
    0
  3
Dash dot __ . __ . __ . __ . __ . __ . __ . __
 72
   65
 73
    4
 40
25.4
 49
12.7
 74
    0
 49
-6.35
 74
    0
 49
0
 74
    0
 49
-6.35
 74
    0
  0
LTYPE
  5
3B
330
5
100
AcDbSymbolTableRecord
100
AcDbLinetypeTableRecord
  2
DASHDOTTINY
 70
    0
  3
Dash dot (.15x) _._._._._._._._._._._._._._._.
 72
   65
 73
    4
 40
3.81
 49
1.905
 74
    0
 49
-0.9525
 74
    0
 49
0
 74
    0
 49
-0.9525
 74
    0
  0
LTYPE
  5
3C
330
5
100
AcDbSymbolTableRecord
100
AcDbLinetypeTableRecord
  2
DASHDOT2
 70
    0
  3
Dash dot (.5x) _._._._._._._._._._._._._._._.
 72
   65
 73
    4
 40
12.7
 49
6.35
 74
    0
 49
-3.175
 74
    0
 49
0
 74
    0
 49
-3.175
 74
    0
  0
LTYPE
  5
3D
330
5
100
AcDbSymbolTableRecord
100
AcDbLinetypeTableRecord
  2
DASHDOTX2
 70
    0
  3
Dash dot (2x) ____  .  ____  .  ____  .  ___
 72
   65
 73
    4
 40
50.8
 49
25.4
 74
    0
 49
-12.7
 74
    0
 49
0
 74
    0
 49
-12.7
 74
    0
  0
LTYPE
  5
3E
330
5
100
AcDbSymbolTableRecord
100
AcDbLinetypeTableRecord
  2
DIVIDE
 70
    0
  3
Divide ____ . . ____ . . ____ . . ____ . . ____
 72
   65
 73
    6
 40
31.75
 49
12.7
 74
    0
 49
-6.35
 74
    0
 49
0
 74
    0
 49
-6.35
 74
    0
 49
0
 74
    0
 49
-6.35
 74
    0
  0
LTYPE
  5
3F
330
5
100
AcDbSymbolTableRecord
100
AcDbLinetypeTableRecord
  2
DIVIDETINY
 70
    0
  3
Divide (.15x) __..__..__..__..__..__..__..__.._
 72
   65
 73
    6
 40
4.7625
 49
1.905
 74
    0
 49
-0.9525
 74
    0
 49
0
 74
    0
 49
-0.9525
 74
    0
 49
0
 74
    0
 49
-0.9525
 74
    0
  0
LTYPE
  5
40
330
5
100
AcDbSymbolTableRecord
100
AcDbLinetypeTableRecord
  2
DIVIDE2
 70
    0
  3
Divide (.5x) __..__..__..__..__..__..__..__.._
 72
   65
 73
    6
 40
15.875
 49
6.35
 74
    0
 49
-3.175
 74
    0
 49
0
 74
    0
 49
-3.175
 74
    0
 49
0
 74
    0
 49
-3.175
 74
    0
  0
LTYPE
  5
41
330
5
100
AcDbSymbolTableRecord
100
AcDbLinetypeTableRecord
  2
DIVIDEX2
 70
    0
  3
Divide (2x) ________  .  .  ________  .  .  _
 72
   65
 73
    6
 40
63.5
 49
25.4
 74
    0
 49
-12.7
 74
    0
 49
0
 74
    0
 49
-12.7
 74
    0
 49
0
 74
    0
 49
-12.7
 74
    0
  0
LTYPE
  5
42
330
5
100
AcDbSymbolTableRecord
100
AcDbLinetypeTableRecord
  2
BORDER
 70
    0
  3
Border __ __ . __ __ . __ __ . __ __ . __ __ .
 72
   65
 73
    6
 40
44.45
 49
12.7
 74
    0
 49
-6.35
 74
    0
 49
12.7
 74
    0
 49
-6.35
 74
    0
 49
0
 74
    0
 49
-6.35
 74
    0
  0
LTYPE
  5
43
330
5
100
AcDbSymbolTableRecord
100
AcDbLinetypeTableRecord
  2
BORDERTINY
 70
    0
  3
Border (.15x) __.__.__.__.__.__.__.__.__.__.__.
 72
   65
 73
    6
 40
6.6675
 49
1.905
 74
    0
 49
-0.9525
 74
    0
 49
1.905
 74
    0
 49
-0.9525
 74
    0
 49
0
 74
    0
 49
-0.9525
 74
    0
  0
LTYPE
  5
44
330
5
100
AcDbSymbolTableRecord
100
AcDbLinetypeTableRecord
  2
BORDER2
 70
    0
  3
Border (.5x) __.__.__.__.__.__.__.__.__.__.__.
 72
   65
 73
    6
 40
22.225
 49
6.35
 74
    0
 49
-3.175
 74
    0
 49
6.35
 74
    0
 49
-3.175
 74
    0
 49
0
 74
    0
 49
-3.175
 74
    0
  0
LTYPE
  5
45
330
5
100
AcDbSymbolTableRecord
100
AcDbLinetypeTableRecord
  2
BORDERX2
 70
    0
  3
Border (2x) ____  ____  .  ____  ____  .  ___
 72
   65
 73
    6
 40
88.89999999999999
 49
25.4
 74
    0
 49
-12.7
 74
    0
 49
25.4
 74
    0
 49
-12.7
 74
    0
 49
0
 74
    0
 49
-12.7
 74
    0
  0
LTYPE
  5
46
330
5
100
AcDbSymbolTableRecord
100
AcDbLinetypeTableRecord
  2
CENTER
 70
    0
  3
Center ____ _ ____ _ ____ _ ____ _ ____ _ ____
 72
   65
 73
    4
 40
50.8
 49
31.75
 74
    0
 49
-6.35
 74
    0
 49
6.35
 74
    0
 49
-6.35
 74
    0
  0
LTYPE
  5
47
330
5
100
AcDbSymbolTableRecord
100
AcDbLinetypeTableRecord
  2
CENTERTINY
 70
    0
  3
Center (.15x) ___ _ ___ _ ___ _ ___ _ ___ _ ___
 72
   65
 73
    4
 40
7.619999999999999
 49
4.7625
 74
    0
 49
-0.9525
 74
    0
 49
0.9525
 74
    0
 49
-0.9525
 74
    0
  0
LTYPE
  5
48
330
5
100
AcDbSymbolTableRecord
100
AcDbLinetypeTableRecord
  2
CENTER2
 70
    0
  3
Center (.5x) ___ _ ___ _ ___ _ ___ _ ___ _ ___
 72
   65
 73
    4
 40
28.575
 49
19.05
 74
    0
 49
-3.175
 74
    0
 49
3.175
 74
    0
 49
-3.175
 74
    0
  0
LTYPE
  5
49
330
5
100
AcDbSymbolTableRecord
100
AcDbLinetypeTableRecord
  2
CENTERX2
 70
    0
  3
Center (2x) ________  __  ________  __  _____
 72
   65
 73
    4
 40
101.6
 49
63.5
 74
    0
 49
-12.7
 74
    0
 49
12.7
 74
    0
 49
-12.7
 74
    0
  0
ENDTAB
  0
TABLE
  2
LAYER
  5
2
330
0
100
AcDbSymbolTable
 70
    1
  0
LAYER
  5
10
330
2
100
AcDbSymbolTableRecord
100
AcDbLayerTableRecord
  2
0
 70
    0
 62
    7
  6
CONTINUOUS
370
    0
390
F
  0
LAYER
  5
4A
330
2
100
AcDbSymbolTableRecord
100
AcDbLayerTableRecord
  2
1粗实线-A (轮廓线)
 70
    0
 62
    3
  6
CONTINUOUS
370
   15
390
F
  0
ENDTAB
  0
TABLE
  2
STYLE
  5
3
330
0
100
AcDbSymbolTable
 70
    3
  0
STYLE
  5
4B
330
2
100
AcDbSymbolTableRecord
100
AcDbTextStyleTableRecord
  2
Standard
 70
    0
 40
0
 41
1
 50
0
 71
    0
 42
1
  3
txt
  4

  0
ENDTAB
  0
TABLE
  2
VIEW
  5
6
330
0
100
AcDbSymbolTable
 70
    0
  0
ENDTAB
  0
TABLE
  2
UCS
  5
7
330
0
100
AcDbSymbolTable
 70
    0
  0
ENDTAB
  0
TABLE
  2
APPID
  5
9
330
0
100
AcDbSymbolTable
 70
    1
  0
APPID
  5
12
330
9
100
AcDbSymbolTableRecord
100
AcDbRegAppTableRecord
  2
ACAD
 70
    0
  0
APPID
  5
4C
330
9
100
AcDbSymbolTableRecord
100
AcDbRegAppTableRecord
  2
LibreCad
 70
    0
  0
ENDTAB
  0
TABLE
  2
DIMSTYLE
  5
A
330
0
100
AcDbSymbolTable
 70
    1
100
AcDbDimStyleTable
 71
    1
  0
DIMSTYLE
105
4D
330
A
100
AcDbSymbolTableRecord
100
AcDbDimStyleTableRecord
  2
Standard
 70
    0
 40
1
 41
2.5
 42
0.625
 43
0.38
 44
1.25
 45
0
 46
0
 47
0
 48
0
 49
1
140
2.5
141
0.09
142
2.5
143
25.4
144
1
145
0
146
1
147
0.625
148
0
 71
    0
 72
    0
 73
    0
 74
    1
 75
    0
 76
    0
 77
    0
 78
    1
 79
    0
170
    0
171
    2
172
    0
173
    0
174
    0
175
    0
176
    0
177
    0
178
    0
179
    0
271
    2
272
    4
273
    2
274
    2
275
    0
276
    0
277
    2
278
    0
279
    0
280
    0
281
    0
282
    0
283
    1
284
    0
285
    0
286
    0
288
    0
289
    3
340
standard
341

371
   -2
372
   -2
  0
ENDTAB
  0
TABLE
  2
BLOCK_RECORD
  5
1
330
0
100
AcDbSymbolTable
 70
    2
  0
BLOCK_RECORD
  5
1F
330
1
100
AcDbSymbolTableRecord
100
AcDbBlockTableRecord
  2
*Model_Space
 70
    0
280
    1
281
    0
  0
BLOCK_RECORD
  5
1E
330
1
100
AcDbSymbolTableRecord
100
AcDbBlockTableRecord
  2
*Paper_Space
 70
    0
280
    1
281
    0
  0
ENDTAB
  0
ENDSEC
  0
SECTION
  2
BLOCKS
  0
BLOCK
  5
20
330
1F
100
AcDbEntity
  8
0
100
AcDbBlockBegin
  2
*Model_Space
 70
    0
 10
0
 20
0
 30
0
  3
*Model_Space
  1

  0
ENDBLK
  5
21
330
1F
100
AcDbEntity
  8
0
100
AcDbBlockEnd
  0
BLOCK
  5
1C
330
1B
100
AcDbEntity
  8
0
100
AcDbBlockBegin
  2
*Paper_Space
 70
    0
 10
0
 20
0
 30
0
  3
*Paper_Space
  1

  0
ENDBLK
  5
1D
330
1F
100
AcDbEntity
  8
0
100
AcDbBlockEnd
  0
ENDSEC
  0
SECTION
  2
ENTITIES
  0
LINE
  5
4E
100
AcDbEntity
  8
1粗实线-A (轮廓线)
  6
CONTINUOUS
 62
    7
370
   -1
100
AcDbLine
 10
268.71875197382
 20
164.6554491634801
 11
268.5555249495001
 21
164.4923092870082
  0
LINE
  5
4F
100
AcDbEntity
  8
1粗实线-A (轮廓线)
  6
CONTINUOUS
 62
    7
370
   -1
100
AcDbLine
 10
270.6455249503401
 20
122.3052419768401
 11
295.6455249502401
 21
122.3052419768401
  0
LINE
  5
50
100
AcDbEntity
  8
1粗实线-A (轮廓线)
  6
CONTINUOUS
 62
    7
370
   -1
100
AcDbLine
 10
286.6455249492601
 20
123.2756061372002
 11
279.6455249487801
 21
123.2756061372002
  0
LINE
  5
51
100
AcDbEntity
  8
1粗实线-A (轮廓线)
  6
CONTINUOUS
 62
    7
370
   -1
100
AcDbLine
 10
273.72095660236
 20
123.37560613786
 11
279.6455249487801
 21
123.37560613786
  0
LINE
  5
52
100
AcDbEntity
  8
1粗实线-A (轮廓线)
  6
CONTINUOUS
 62
    7
370
   -1
100
AcDbLine
 10
286.6455249492601
 20
123.37560613786
 11
292.57055867448
 21
123.3755712281002
  0
LINE
  5
53
100
AcDbEntity
  8
1粗实线-A (轮廓线)
  6
CONTINUOUS
 62
    7
370
   -1
100
AcDbLine
 10
286.6455249492601
 20
123.7756061379602
 11
279.6455249487801
 21
123.7756061379602
  0
LINE
  5
54
100
AcDbEntity
  8
1粗实线-A (轮廓线)
  6
CONTINUOUS
 62
    7
370
   -1
100
AcDbLine
 10
270.7795106463
 20
123.9760028491801
 11
295.5155249486199
 21
123.97560613928
  0
LINE
  5
55
100
AcDbEntity
  8
1粗实线-A (轮廓线)
  6
CONTINUOUS
 62
    7
370
   -1
100
AcDbLine
 10
291.24552494914
 20
124.97560613826
 11
290.6455249502601
 21
124.97560613826
  0
LINE
  5
56
100
AcDbEntity
  8
1粗实线-A (轮廓线)
  6
CONTINUOUS
 62
    7
370
   -1
100
AcDbLine
 10
276.6455249493001
 20
124.97560613826
 11
276.04552494788
 21
124.97560613826
  0
LINE
  5
57
100
AcDbEntity
  8
1粗实线-A (轮廓线)
  6
CONTINUOUS
 62
    7
370
   -1
100
AcDbLine
 10
264.02516078698
 20
128.99999999954
 11
264.02516078698
 21
128.92560613766
  0
LINE
  5
58
100
AcDbEntity
  8
1粗实线-A (轮廓线)
  6
CONTINUOUS
 62
    7
370
   -1
100
AcDbLine
 10
264.19136679188
 20
145.2997302499
 11
264.19279015708
 21
161.96633361208
  0
LINE
  5
59
100
AcDbEntity
  8
1粗实线-A (轮廓线)
  6
CONTINUOUS
 62
    7
370
   -1
100
AcDbLine
 10
264.4283315021
 20
129.65000000002
 11
264.4283315021
 21
144.6499957556201
  0
LINE
  5
5A
100
AcDbEntity
  8
1粗实线-A (轮廓线)
  6
CONTINUOUS
 62
    7
370
   -1
100
AcDbLine
 10
264.6705304055599
 20
161.9272322374002
 11
264.6705304055599
 21
150.1499983319201
  0
LINE
  5
5B
100
AcDbEntity
  8
1粗实线-A (轮廓线)
  6
CONTINUOUS
 62
    7
370
   -1
100
AcDbLine
 10
264.9246627954401
 20
128.18121931808
 11
264.9246627954401
 21
129.1500000018
  0
LINE
  5
5C
100
AcDbEntity
  8
1粗实线-A (轮廓线)
  6
CONTINUOUS
 62
    7
370
   -1
100
AcDbLine
 10
265.19552494866
 20
149.69831406384
 11
265.19552494866
 21
151.50999653394
  0
LINE
  5
5D
100
AcDbEntity
  8
1粗实线-A (轮廓线)
  6
CONTINUOUS
 62
    7
370
   -1
100
AcDbLine
 10
265.19552494866
 20
158.6953064330402
 11
265.19552494866
 21
161.9256061370201
  0
LWPOLYLINE
  5
5E
100
AcDbEntity
  8
1粗实线-A (轮廓线)
  6
CONTINUOUS
 62
    7
370
   -1
100
AcDbPolyline
 90
    6
 70
    0
 43
0
 10
264.42833150464
 20
129.65000000002
 10
264.4280798820801
 20
129.62763472598
 10
264.4202119222
 20
129.52148252274
 10
264.4035544650401
 20
129.42566357798
 10
264.38160896156
 20
129.34246985562
 10
264.3573892030399
 20
129.272291172
  0
LWPOLYLINE
  5
5F
100
AcDbEntity
  8
1粗实线-A (轮廓线)
  6
CONTINUOUS
 62
    7
370
   -1
100
AcDbPolyline
 90
    6
 70
    0
 43
0
 10
264.35979608926
 20
145.02139068466
 10
264.38375652902
 20
144.95045351132
 10
264.4052175021
 20
144.8666863230001
 10
264.4211883769401
 20
144.7704865154001
 10
264.42822649596
 20
144.66423437078
 10
264.42833150464
 20
144.64999528572
  0
LINE
  5
60
100
AcDbEntity
  8
1粗实线-A (轮廓线)
  6
CONTINUOUS
 62
    7
370
   -1
100
AcDbLine
 10
265.7455249484801
 20
152.6224263080601
 11
265.7455249484801
 21
157.5828766614601
  0
LINE
  5
61
100
AcDbEntity
  8
1粗实线-A (轮廓线)
  6
CONTINUOUS
 62
    7
370
   -1
100
AcDbLine
 10
266.7455249500001
 20
161.9256061370201
 11
266.7455249500001
 21
158.29373625066
  0
LINE
  5
62
100
AcDbEntity
  8
1粗实线-A (轮廓线)
  6
CONTINUOUS
 62
    7
370
   -1
100
AcDbLine
 10
266.7455249500001
 20
157.4937362504601
 11
266.7455249500001
 21
153.91490184604
  0
LINE
  5
63
100
AcDbEntity
  8
1粗实线-A (轮廓线)
  6
CONTINUOUS
 62
    7
370
   -1
100
AcDbLine
 10
266.7455249500001
 20
152.89373625058
 11
266.7455249500001
 21
150.96697491234
  0
LINE
  5
64
100
AcDbEntity
  8
1粗实线-A (轮廓线)
  6
CONTINUOUS
 62
    7
370
   -1
100
AcDbLine
 10
267.29552494982
 20
153.91490184604
 11
267.29552494982
 21
158.29373625066
  0
LINE
  5
65
100
AcDbEntity
  8
1粗实线-A (轮廓线)
  6
CONTINUOUS
 62
    7
370
   -1
100
AcDbLine
 10
267.3447355575199
 20
130.02685669614
 11
267.34486266166
 21
131.7535463542602
  0
LINE
  5
66
100
AcDbEntity
  8
1粗实线-A (轮廓线)
  6
CONTINUOUS
 62
    7
370
   -1
100
AcDbLine
 10
265.46559539912
 20
128.18121931808
 11
264.9246627954401
 21
128.18121931808
  0
LINE
  5
67
100
AcDbEntity
  8
1粗实线-A (轮廓线)
  6
CONTINUOUS
 62
    7
370
   -1
100
AcDbLine
 10
266.04789592362
 20
128.3500000016001
 11
266.62552797892
 21
128.3500000016001
  0
LINE
  5
68
100
AcDbEntity
  8
1粗实线-A (轮廓线)
  6
CONTINUOUS
 62
    7
370
   -1
100
AcDbLine
 10
264.1757337624401
 20
129.1500000018
 11
266.62552797892
 21
129.1500000018
  0
LINE
  5
69
100
AcDbEntity
  8
1粗实线-A (轮廓线)
  6
CONTINUOUS
 62
    7
370
   -1
100
AcDbLine
 10
269.5455200993001
 20
134.81713742544
 11
269.38830358874
 21
135.04282422324
  0
LWPOLYLINE
  5
6A
100
AcDbEntity
  8
1粗实线-A (轮廓线)
  6
CONTINUOUS
 62
    7
370
   -1
100
AcDbPolyline
 90
    3
 70
    0
 43
0
 10
264.3130603712
 20
145.1257220508002
 10
264.33561262226
 20
145.0798004281402
 10
264.35979608926
 20
145.02139068466
  0
LINE
  5
6B
100
AcDbEntity
  8
1粗实线-A (轮廓线)
  6
CONTINUOUS
 62
    7
370
   -1
100
AcDbLine
 10
267.4555249498601
 20
156.69373625026
 11
267.4555249498601
 21
152.89373625058
  0
LINE
  5
6C
100
AcDbEntity
  8
1粗实线-A (轮廓线)
  6
CONTINUOUS
 62
    7
370
   -1
100
AcDbLine
 10
267.4880769091401
 20
151.0937362514002
 11
267.4880769091401
 21
152.89373625058
  0
LINE
  5
6D
100
AcDbEntity
  8
1粗实线-A (轮廓线)
  6
CONTINUOUS
 62
    7
370
   -1
100
AcDbLine
 10
267.4955249486
 20
161.9256061370201
 11
267.4955249486
 21
158.29373625066
  0
LINE
  5
6E
100
AcDbEntity
  8
1粗实线-A (轮廓线)
  6
CONTINUOUS
 62
    7
370
   -1
100
AcDbLine
 10
267.8449305947199
 20
130.6096612963402
 11
267.8449305947199
 21
131.4196150510801
  0
LINE
  5
6F
100
AcDbEntity
  8
1粗实线-A (轮廓线)
  6
CONTINUOUS
 62
    7
370
   -1
100
AcDbLine
 10
267.85552494996
 20
156.13868522676
 11
267.85552494996
 21
152.7952344765401
  0
LINE
  5
70
100
AcDbEntity
  8
1粗实线-A (轮廓线)
  6
CONTINUOUS
 62
    7
370
   -1
100
AcDbLine
 10
268.05552494874
 20
156.53868522686
 11
268.05552494874
 21
159.1756061379201
  0
LINE
  5
71
100
AcDbEntity
  8
1粗实线-A (轮廓线)
  6
CONTINUOUS
 62
    7
370
   -1
100
AcDbLine
 10
268.5555249495001
 20
164.4924160681601
 11
268.5555249495001
 21
159.67560610312
  0
LINE
  5
72
100
AcDbEntity
  8
1粗实线-A (轮廓线)
  6
CONTINUOUS
 62
    7
370
   -1
100
AcDbLine
 10
268.5555249495001
 20
146.34347108596
 11
268.5555249495001
 21
152.7952344765401
  0
LINE
  5
73
100
AcDbEntity
  8
1粗实线-A (轮廓线)
  6
CONTINUOUS
 62
    7
370
   -1
100
AcDbLine
 10
269.42552797962
 20
134.9893904159601
 11
269.42552797962
 21
135.0175703535623
  0
LINE
  5
74
100
AcDbEntity
  8
1粗实线-A (轮廓线)
  6
CONTINUOUS
 62
    7
370
   -1
100
AcDbLine
 10
300.2055249488401
 20
129.76373624956
 11
299.6306443282201
 21
129.76373624956
  0
LINE
  5
75
100
AcDbEntity
  8
1粗实线-A (轮廓线)
  6
CONTINUOUS
 62
    7
370
   -1
100
AcDbLine
 10
285.3949157309
 20
130.0121467763602
 11
284.05325513
 21
130.0121467763602
  0
LINE
  5
76
100
AcDbEntity
  8
1粗实线-A (轮廓线)
  6
CONTINUOUS
 62
    7
370
   -1
100
AcDbLine
 10
282.23779476804
 20
130.0121467763602
 11
280.89613416714
 21
130.0121467763602
  0
LINE
  5
77
100
AcDbEntity
  8
1粗实线-A (轮廓线)
  6
CONTINUOUS
 62
    7
370
   -1
100
AcDbLine
 10
282.8339707791399
 20
130.0121467763602
 11
283.4570791189001
 21
130.0121467763602
  0
LINE
  5
78
100
AcDbEntity
  8
1粗实线-A (轮廓线)
  6
CONTINUOUS
 62
    7
370
   -1
100
AcDbLine
 10
285.2507910940801
 20
130.21214677768
 11
283.9694398772601
 21
130.21214677768
  0
LINE
  5
79
100
AcDbEntity
  8
1粗实线-A (轮廓线)
  6
CONTINUOUS
 62
    7
370
   -1
100
AcDbLine
 10
282.3216100207801
 20
130.21214677768
 11
281.0402588039601
 21
130.21214677768
  0
LINE
  5
7A
100
AcDbEntity
  8
1粗实线-A (轮廓线)
  6
CONTINUOUS
 62
    7
370
   -1
100
AcDbLine
 10
301.3955249488199
 20
130.30253824282
 11
300.9174968396001
 21
130.30253824282
  0
LINE
  5
7B
100
AcDbEntity
  8
1粗实线-A (轮廓线)
  6
CONTINUOUS
 62
    7
370
   -1
100
AcDbLine
 10
299.89552494908
 20
131.20253824114
 11
302.1153161356001
 21
131.20253824114
  0
LWPOLYLINE
  5
7C
100
AcDbEntity
  8
1粗实线-A (轮廓线)
  6
CONTINUOUS
 62
    7
370
   -1
100
AcDbPolyline
 90
    3
 70
    0
 43
0
 10
264.2935318351999
 20
145.15937059412
 10
264.29395791258
 20
145.1587551876801
 10
264.3130603712
 20
145.1257220508002
  0
LINE
  5
7D
100
AcDbEntity
  8
1粗实线-A (轮廓线)
  6
CONTINUOUS
 62
    7
370
   -1
100
AcDbLine
 10
269.6455249488199
 20
164.9126615446602
 11
269.6455249488199
 21
165.6952215035401
  0
LINE
  5
7E
100
AcDbEntity
  8
1粗实线-A (轮廓线)
  6
CONTINUOUS
 62
    7
370
   -1
100
AcDbLine
 10
269.7474666651801
 20
144.0355836646597
 11
269.7474666651801
 21
144.17373625094
  0
LINE
  5
7F
100
AcDbEntity
  8
1粗实线-A (轮廓线)
  6
CONTINUOUS
 62
    7
370
   -1
100
AcDbLine
 10
270.00212109618
 20
142.2182803549
 11
270.00210630068
 21
136.1715033882801
  0
LINE
  5
80
100
AcDbEntity
  8
1粗实线-A (轮廓线)
  6
CONTINUOUS
 62
    7
370
   -1
100
AcDbLine
 10
270.77518782538
 20
143.90000000136
 11
270.77518782538
 21
143.0599233274401
  0
LINE
  5
81
100
AcDbEntity
  8
1粗实线-A (轮廓线)
  6
CONTINUOUS
 62
    7
370
   -1
100
AcDbLine
 10
270.77951218046
 20
124.3775793754667
 11
270.77951218046
 21
123.6257151144
  0
LINE
  5
82
100
AcDbEntity
  8
1粗实线-A (轮廓线)
  6
CONTINUOUS
 62
    7
370
   -1
100
AcDbLine
 10
270.82516664592
 20
143.01884839308
 11
270.82516664592
 21
140.5025692067002
  0
LINE
  5
83
100
AcDbEntity
  8
1粗实线-A (轮廓线)
  6
CONTINUOUS
 62
    7
370
   -1
100
AcDbLine
 10
270.82516664592
 20
136.0994930166801
 11
270.82516664592
 21
136.55373625094
  0
LINE
  5
84
100
AcDbEntity
  8
1粗实线-A (轮廓线)
  6
CONTINUOUS
 62
    7
370
   -1
100
AcDbLine
 10
270.8455249491201
 20
139.6537362510801
 11
270.8455249491201
 21
137.6537362505801
  0
LINE
  5
85
100
AcDbEntity
  8
1粗实线-A (轮廓线)
  6
CONTINUOUS
 62
    7
370
   -1
100
AcDbLine
 10
271.02518782576
 20
143.90000000136
 11
271.02518782576
 21
140.72083275798
  0
LINE
  5
86
100
AcDbEntity
  8
1粗实线-A (轮廓线)
  6
CONTINUOUS
 62
    7
370
   -1
100
AcDbLine
 10
271.24552494922
 20
139.6537362510801
 11
271.24552494922
 21
137.6537362505801
  0
LINE
  5
87
100
AcDbEntity
  8
1粗实线-A (轮廓线)
  6
CONTINUOUS
 62
    7
370
   -1
100
AcDbLine
 10
271.24552494922
 20
129.1778294584601
 11
271.24552494922
 21
130.8773133340601
  0
LINE
  5
88
100
AcDbEntity
  8
1粗实线-A (轮廓线)
  6
CONTINUOUS
 62
    7
370
   -1
100
AcDbLine
 10
271.24552494922
 20
131.97389894378
 11
271.24552494922
 21
133.6733828168401
  0
LINE
  5
89
100
AcDbEntity
  8
1粗实线-A (轮廓线)
  6
CONTINUOUS
 62
    7
370
   -1
100
AcDbLine
 10
271.3251666644601
 20
135.17130084716
 11
271.3251666289
 21
137.15373625236
  0
LINE
  5
8A
100
AcDbEntity
  8
1粗实线-A (轮廓线)
  6
CONTINUOUS
 62
    7
370
   -1
100
AcDbLine
 10
271.445524948
 20
140.5025692067002
 11
271.445524948
 21
139.6537362510801
  0
LINE
  5
8B
100
AcDbEntity
  8
1粗实线-A (轮廓线)
  6
CONTINUOUS
 62
    7
370
   -1
100
AcDbLine
 10
271.445524948
 20
137.6537362505801
 11
271.445524948
 21
137.15373625236
  0
LINE
  5
8C
100
AcDbEntity
  8
1粗实线-A (轮廓线)
  6
CONTINUOUS
 62
    7
370
   -1
100
AcDbLine
 10
271.8455249481001
 20
129.2872656607201
 11
271.8455249481001
 21
130.8773133340601
  0
LINE
  5
8D
100
AcDbEntity
  8
1粗实线-A (轮廓线)
  6
CONTINUOUS
 62
    7
370
   -1
100
AcDbLine
 10
271.8455249481001
 20
131.97389894378
 11
271.8455249481001
 21
133.56394661712
  0
LINE
  5
8E
100
AcDbEntity
  8
1粗实线-A (轮廓线)
  6
CONTINUOUS
 62
    7
370
   -1
100
AcDbLine
 10
272.04552494942
 20
137.15373625236
 11
272.04552494942
 21
139.6537362510801
  0
LINE
  5
8F
100
AcDbEntity
  8
1粗实线-A (轮廓线)
  6
CONTINUOUS
 62
    7
370
   -1
100
AcDbLine
 10
272.2455249482
 20
143.90000000136
 11
272.2455249482
 21
144.4737362503802
  0
LINE
  5
90
100
AcDbEntity
  8
1粗实线-A (轮廓线)
  6
CONTINUOUS
 62
    7
370
   -1
100
AcDbLine
 10
272.8251666286401
 20
137.15373625236
 11
272.8251666286401
 21
136.55373625094
  0
LINE
  5
91
100
AcDbEntity
  8
1粗实线-A (轮廓线)
  6
CONTINUOUS
 62
    7
370
   -1
100
AcDbLine
 10
270.5167661247999
 20
134.6651527637
 11
270.3143349802601
 21
133.5164488482601
  0
LINE
  5
92
100
AcDbEntity
  8
1粗实线-A (轮廓线)
  6
CONTINUOUS
 62
    7
370
   -1
100
AcDbLine
 10
270.74212125194
 20
133.6391475208201
 11
270.9323687378401
 21
134.71871476478
  0
LWPOLYLINE
  5
93
100
AcDbEntity
  8
1粗实线-A (轮廓线)
  6
CONTINUOUS
 62
    7
370
   -1
100
AcDbPolyline
 90
    3
 70
    0
 43
0
 10
264.3573892030399
 20
129.272291172
 10
264.3331794114799
 20
129.2148814519201
 10
264.31081922252
 20
129.170118783
  0
LINE
  5
94
100
AcDbEntity
  8
1粗实线-A (轮廓线)
  6
CONTINUOUS
 62
    7
370
   -1
100
AcDbLine
 10
299.517825714797
 20
126.5284601502391
 11
300.2042710575199
 21
126.2533558459002
  0
LINE
  5
95
100
AcDbEntity
  8
1粗实线-A (轮廓线)
  6
CONTINUOUS
 62
    7
370
   -1
100
AcDbLine
 10
274.39552494842
 20
132.42435535554
 11
274.39552494842
 21
130.42685691976
  0
LINE
  5
96
100
AcDbEntity
  8
1粗实线-A (轮廓线)
  6
CONTINUOUS
 62
    7
370
   -1
100
AcDbLine
 10
274.8955249491801
 20
129.8959002829201
 11
274.8955249491801
 21
132.66657350204
  0
LINE
  5
97
100
AcDbEntity
  8
1粗实线-A (轮廓线)
  6
CONTINUOUS
 62
    7
370
   -1
100
AcDbLine
 10
275.39552494994
 20
132.66657350204
 11
275.39552494994
 21
130.1846387732601
  0
LINE
  5
98
100
AcDbEntity
  8
1粗实线-A (轮廓线)
  6
CONTINUOUS
 62
    7
370
   -1
100
AcDbLine
 10
267.4315009643801
 20
131.9438009343801
 11
267.3447991108601
 21
131.7534067965001
  0
LINE
  5
99
100
AcDbEntity
  8
1粗实线-A (轮廓线)
  6
CONTINUOUS
 62
    7
370
   -1
100
AcDbLine
 10
264.31081922252
 20
129.170118783
 11
264.2989821697399
 21
129.1500000018
  0
LINE
  5
9A
100
AcDbEntity
  8
1粗实线-A (轮廓线)
  6
CONTINUOUS
 62
    7
370
   -1
100
AcDbLine
 10
269.490315658416
 20
143.7879816604818
 11
269.7474666651801
 21
144.0355836646602
  0
LINE
  5
9B
100
AcDbEntity
  8
1粗实线-A (轮廓线)
  6
CONTINUOUS
 62
    7
370
   -1
100
AcDbLine
 10
295.5455249495801
 20
136.49373625156
 11
294.94552494816
 21
136.49373625156
  0
LINE
  5
9C
100
AcDbEntity
  8
1粗实线-A (轮廓线)
  6
CONTINUOUS
 62
    7
370
   -1
100
AcDbLine
 10
270.82516664592
 20
136.55373625094
 11
272.8251666286401
 21
136.55373625094
  0
LINE
  5
9D
100
AcDbEntity
  8
1粗实线-A (轮廓线)
  6
CONTINUOUS
 62
    7
370
   -1
100
AcDbLine
 10
271.3251666289
 20
137.15373625236
 11
272.8251666286401
 21
137.15373625236
  0
LINE
  5
9E
100
AcDbEntity
  8
1粗实线-A (轮廓线)
  6
CONTINUOUS
 62
    7
370
   -1
100
AcDbLine
 10
294.94552494816
 20
137.49373625054
 11
295.5455249495801
 21
137.49373625054
  0
LINE
  5
9F
100
AcDbEntity
  8
1粗实线-A (轮廓线)
  6
CONTINUOUS
 62
    7
370
   -1
100
AcDbLine
 10
275.4455249489999
 20
143.90000000136
 11
275.4455249489999
 21
144.4737362503802
  0
LINE
  5
A0
100
AcDbEntity
  8
1粗实线-A (轮廓线)
  6
CONTINUOUS
 62
    7
370
   -1
100
AcDbLine
 10
275.8955249481601
 20
130.42685691976
 11
275.8955249481601
 21
132.42435535554
  0
LINE
  5
A1
100
AcDbEntity
  8
1粗实线-A (轮廓线)
  6
CONTINUOUS
 62
    7
370
   -1
100
AcDbLine
 10
276.04552494788
 20
124.97560613826
 11
276.04552494788
 21
123.97560613928
  0
LINE
  5
A2
100
AcDbEntity
  8
1粗实线-A (轮廓线)
  6
CONTINUOUS
 62
    7
370
   -1
100
AcDbLine
 10
276.5455249486399
 20
143.90000000136
 11
276.5455249486399
 21
144.4737362503802
  0
LINE
  5
A3
100
AcDbEntity
  8
1粗实线-A (轮廓线)
  6
CONTINUOUS
 62
    7
370
   -1
100
AcDbLine
 10
276.6455249493001
 20
123.97560613928
 11
276.6455249493001
 21
124.97560613826
  0
LINE
  5
A4
100
AcDbEntity
  8
1粗实线-A (轮廓线)
  6
CONTINUOUS
 62
    7
370
   -1
100
AcDbLine
 10
276.8955249496801
 20
143.54999999778
 11
276.8955249496801
 21
141
  0
LINE
  5
A5
100
AcDbEntity
  8
1粗实线-A (轮廓线)
  6
CONTINUOUS
 62
    7
370
   -1
100
AcDbLine
 10
270.8455249491201
 20
137.6537362505801
 11
272.04552494942
 21
137.6537362505801
  0
LINE
  5
A6
100
AcDbEntity
  8
1粗实线-A (轮廓线)
  6
CONTINUOUS
 62
    7
370
   -1
100
AcDbLine
 10
296.14552494846
 20
138.1937362500801
 11
296.02076185788
 21
138.1937362500801
  0
LINE
  5
A7
100
AcDbEntity
  8
1粗实线-A (轮廓线)
  6
CONTINUOUS
 62
    7
370
   -1
100
AcDbLine
 10
272.04552494942
 20
138.1937362500801
 11
294.09974965724
 21
138.1937362500801
  0
LINE
  5
A8
100
AcDbEntity
  8
1粗实线-A (轮廓线)
  6
CONTINUOUS
 62
    7
370
   -1
100
AcDbLine
 10
296.14552494846
 20
139.1937362516002
 11
295.65179796538
 21
139.1937362516002
  0
LINE
  5
A9
100
AcDbEntity
  8
1粗实线-A (轮廓线)
  6
CONTINUOUS
 62
    7
370
   -1
100
AcDbLine
 10
293.07666864778
 20
139.1937362516002
 11
272.04552494942
 21
139.1937362516002
  0
LINE
  5
AA
100
AcDbEntity
  8
1粗实线-A (轮廓线)
  6
CONTINUOUS
 62
    7
370
   -1
100
AcDbLine
 10
277.6455249482801
 20
165.8256061373601
 11
277.6455249482801
 21
165.07560613876
  0
LINE
  5
AB
100
AcDbEntity
  8
1粗实线-A (轮廓线)
  6
CONTINUOUS
 62
    7
370
   -1
100
AcDbLine
 10
278.3287150195399
 20
165.07560613876
 11
278.3287150195399
 21
164.7424160660001
  0
LINE
  5
AC
100
AcDbEntity
  8
1粗实线-A (轮廓线)
  6
CONTINUOUS
 62
    7
370
   -1
100
AcDbLine
 10
278.8455249485801
 20
129.1956958260802
 11
278.8455249485801
 21
130.8773133340601
  0
LINE
  5
AD
100
AcDbEntity
  8
1粗实线-A (轮廓线)
  6
CONTINUOUS
 62
    7
370
   -1
100
AcDbLine
 10
278.8455249485801
 20
131.97389894378
 11
278.8455249485801
 21
133.6555164492202
  0
LINE
  5
AE
100
AcDbEntity
  8
1粗实线-A (轮廓线)
  6
CONTINUOUS
 62
    7
370
   -1
100
AcDbLine
 10
278.8955249501801
 20
164.7424160660001
 11
278.8955249501801
 21
165.8256061373601
  0
LINE
  5
AF
100
AcDbEntity
  8
1粗实线-A (轮廓线)
  6
CONTINUOUS
 62
    7
370
   -1
100
AcDbLine
 10
298.53870527766
 20
164.54085136372
 11
298.1109023613601
 21
164.1937362515
  0
LINE
  5
B0
100
AcDbEntity
  8
1粗实线-A (轮廓线)
  6
CONTINUOUS
 62
    7
370
   -1
100
AcDbLine
 10
272.04552494942
 20
139.6537362510801
 11
270.8455249491201
 21
139.6537362510801
  0
LINE
  5
B1
100
AcDbEntity
  8
1粗实线-A (轮廓线)
  6
CONTINUOUS
 62
    7
370
   -1
100
AcDbLine
 10
271.445524948
 20
140.5025692067002
 11
270.82516664592
 21
140.5025692067002
  0
LINE
  5
B2
100
AcDbEntity
  8
1粗实线-A (轮廓线)
  6
CONTINUOUS
 62
    7
370
   -1
100
AcDbLine
 10
276.8955249496801
 20
141
 11
293
 21
141
  0
LINE
  5
B3
100
AcDbEntity
  8
1粗实线-A (轮廓线)
  6
CONTINUOUS
 62
    7
370
   -1
100
AcDbLine
 10
298.43285049064
 20
129.2356310751401
 11
299.17984819146
 21
128.72466965612
  0
LINE
  5
B4
100
AcDbEntity
  8
1粗实线-A (轮廓线)
  6
CONTINUOUS
 62
    7
370
   -1
100
AcDbLine
 10
297.0744553842201
 20
130.2672765734401
 11
297.98054571072
 21
129.647492606
  0
LINE
  5
B5
100
AcDbEntity
  8
1粗实线-A (轮廓线)
  6
CONTINUOUS
 62
    7
370
   -1
100
AcDbLine
 10
298.1733031128599
 20
130.00026763578
 11
297.2506792177001
 21
130.6313608973401
  0
LINE
  5
B6
100
AcDbEntity
  8
1粗实线-A (轮廓线)
  6
CONTINUOUS
 62
    7
370
   -1
100
AcDbLine
 10
299.42928759098
 20
129.22040742258
 11
298.70598514376
 21
129.7151608145801
  0
LINE
  5
B7
100
AcDbEntity
  8
1粗实线-A (轮廓线)
  6
CONTINUOUS
 62
    7
370
   -1
100
AcDbLine
 10
279.4455249499999
 20
129.1956958260802
 11
279.4455249499999
 21
130.8773133340601
  0
LINE
  5
B8
100
AcDbEntity
  8
1粗实线-A (轮廓线)
  6
CONTINUOUS
 62
    7
370
   -1
100
AcDbLine
 10
279.4455249499999
 20
131.97389894378
 11
279.4455249499999
 21
133.6555164492202
  0
LINE
  5
B9
100
AcDbEntity
  8
1粗实线-A (轮廓线)
  6
CONTINUOUS
 62
    7
370
   -1
100
AcDbLine
 10
279.6455249487801
 20
123.2756061372002
 11
279.6455249487801
 21
123.97560613928
  0
LINE
  5
BA
100
AcDbEntity
  8
1粗实线-A (轮廓线)
  6
CONTINUOUS
 62
    7
370
   -1
100
AcDbLine
 10
280.1371497719799
 20
165.8256061373601
 11
280.1371497719799
 21
165.2737362505
  0
LINE
  5
BB
100
AcDbEntity
  8
1粗实线-A (轮廓线)
  6
CONTINUOUS
 62
    7
370
   -1
100
AcDbLine
 10
280.34552494832
 20
123.97560613928
 11
280.34552494832
 21
124.11853471804
  0
LINE
  5
BC
100
AcDbEntity
  8
1粗实线-A (轮廓线)
  6
CONTINUOUS
 62
    7
370
   -1
100
AcDbLine
 10
280.4955249480399
 20
127.7134638985001
 11
280.4955249480399
 21
124.4756061375
  0
LINE
  5
BD
100
AcDbEntity
  8
1粗实线-A (轮廓线)
  6
CONTINUOUS
 62
    7
370
   -1
100
AcDbLine
 10
280.4955249480399
 20
128.30510938272
 11
280.4955249480399
 21
129.6256061372002
  0
LINE
  5
BE
100
AcDbEntity
  8
1粗实线-A (轮廓线)
  6
CONTINUOUS
 62
    7
370
   -1
100
AcDbLine
 10
280.81175271538
 20
128.4618779058601
 11
280.81175271538
 21
129.9135925691002
  0
LINE
  5
BF
100
AcDbEntity
  8
1粗实线-A (轮廓线)
  6
CONTINUOUS
 62
    7
370
   -1
100
AcDbLine
 10
280.8455249490801
 20
123.97560613928
 11
280.8455249490801
 21
127.8601468411001
  0
LINE
  5
C0
100
AcDbEntity
  8
1粗实线-A (轮廓线)
  6
CONTINUOUS
 62
    7
370
   -1
100
AcDbLine
 10
274.56851007616
 20
138.1937362500801
 11
272.6724271932001
 21
135.5403442264201
  0
LINE
  5
C1
100
AcDbEntity
  8
1粗实线-A (轮廓线)
  6
CONTINUOUS
 62
    7
370
   -1
100
AcDbLine
 10
272.58982431548
 20
134.3927595442
 11
275.3059577808401
 21
138.1937362500801
  0
LINE
  5
C2
100
AcDbEntity
  8
1粗实线-A (轮廓线)
  6
CONTINUOUS
 62
    7
370
   -1
100
AcDbLine
 10
270.82516664592
 20
140.70333317398
 11
276.8955249496801
 21
141.23442070718
  0
LINE
  5
C3
100
AcDbEntity
  8
1粗实线-A (轮廓线)
  6
CONTINUOUS
 62
    7
370
   -1
100
AcDbLine
 10
292.6455249482201
 20
142.00000000152
 11
277.3955249479
 21
142.00000000152
  0
LINE
  5
C4
100
AcDbEntity
  8
1粗实线-A (轮廓线)
  6
CONTINUOUS
 62
    7
370
   -1
100
AcDbLine
 10
283.75832260836
 20
137.6442407679201
 11
284.6131520010599
 21
135.295616311
  0
LINE
  5
C5
100
AcDbEntity
  8
1粗实线-A (轮廓线)
  6
CONTINUOUS
 62
    7
370
   -1
100
AcDbLine
 10
281.6455249492801
 20
165.2737362505
 11
281.6455249492801
 21
166.8256061388802
  0
LINE
  5
C6
100
AcDbEntity
  8
1粗实线-A (轮廓线)
  6
CONTINUOUS
 62
    7
370
   -1
100
AcDbLine
 10
282.3955249478799
 20
132.42435535554
 11
282.3955249478799
 21
130.42685691976
  0
LINE
  5
C7
100
AcDbEntity
  8
1粗实线-A (轮廓线)
  6
CONTINUOUS
 62
    7
370
   -1
100
AcDbLine
 10
282.63272729034
 20
138.1937362500801
 11
282.63272729034
 21
137.6442407679201
  0
LINE
  5
C8
100
AcDbEntity
  8
1粗实线-A (轮廓线)
  6
CONTINUOUS
 62
    7
370
   -1
100
AcDbLine
 10
282.8955249486401
 20
130.1846387732601
 11
282.8955249486401
 21
132.66657350204
  0
LINE
  5
C9
100
AcDbEntity
  8
1粗实线-A (轮廓线)
  6
CONTINUOUS
 62
    7
370
   -1
100
AcDbLine
 10
283.3955249493999
 20
132.66657350204
 11
283.3955249493999
 21
130.1846387732601
  0
LINE
  5
CA
100
AcDbEntity
  8
1粗实线-A (轮廓线)
  6
CONTINUOUS
 62
    7
370
   -1
100
AcDbLine
 10
280.3851184124401
 20
138.1937362500801
 11
279.58984342946
 21
136.0087361928602
  0
LINE
  5
CB
100
AcDbEntity
  8
1粗实线-A (轮廓线)
  6
CONTINUOUS
 62
    7
370
   -1
100
AcDbLine
 10
273.54374312138
 20
133.83569941372
 11
276.6579452368801
 21
138.1937362500801
  0
LINE
  5
CC
100
AcDbEntity
  8
1粗实线-A (轮廓线)
  6
CONTINUOUS
 62
    7
370
   -1
100
AcDbLine
 10
274.6734776615001
 20
134.3846684326202
 11
277.39539294156
 21
138.1937362500801
  0
LINE
  5
CD
100
AcDbEntity
  8
1粗实线-A (轮廓线)
  6
CONTINUOUS
 62
    7
370
   -1
100
AcDbLine
 10
268.3188347472401
 20
128.5252057345001
 11
267.64930978454
 21
127.71877803316
  0
LINE
  5
CE
100
AcDbEntity
  8
1粗实线-A (轮廓线)
  6
CONTINUOUS
 62
    7
370
   -1
100
AcDbLine
 10
268.03427363996
 20
127.32143758832
 11
268.7379027229201
 21
128.1689429342
  0
LINE
  5
CF
100
AcDbEntity
  8
1粗实线-A (轮廓线)
  6
CONTINUOUS
 62
    7
370
   -1
100
AcDbLine
 10
270.77518782538
 20
143.90000000136
 11
276.5455249689601
 21
143.90000000136
  0
LINE
  5
D0
100
AcDbEntity
  8
1粗实线-A (轮廓线)
  6
CONTINUOUS
 62
    7
370
   -1
100
AcDbLine
 10
295.84552494902
 20
143.9000002502801
 11
293.4955249398599
 21
143.9000002502801
  0
LINE
  5
D1
100
AcDbEntity
  8
1粗实线-A (轮廓线)
  6
CONTINUOUS
 62
    7
370
   -1
100
AcDbLine
 10
269.78926566972
 20
144.07373625028
 11
272.2455249482
 21
144.07373625028
  0
LINE
  5
D2
100
AcDbEntity
  8
1粗实线-A (轮廓线)
  6
CONTINUOUS
 62
    7
370
   -1
100
AcDbLine
 10
295.84552494902
 20
144.07373625028
 11
297.5984392943401
 21
144.07373625028
  0
LINE
  5
D3
100
AcDbEntity
  8
1粗实线-A (轮廓线)
  6
CONTINUOUS
 62
    7
370
   -1
100
AcDbLine
 10
301.9496481661999
 20
144.30253824124
 11
299.89552494908
 21
144.30253824124
  0
LINE
  5
D4
100
AcDbEntity
  8
1粗实线-A (轮廓线)
  6
CONTINUOUS
 62
    7
370
   -1
100
AcDbLine
 10
297.0855249480601
 20
144.52373625198
 11
297.8855249482601
 21
144.52373625198
  0
LINE
  5
D5
100
AcDbEntity
  8
1粗实线-A (轮廓线)
  6
CONTINUOUS
 62
    7
370
   -1
100
AcDbLine
 10
297.0855249480601
 20
144.6737362517
 11
296.04552495034
 21
144.6737362517
  0
LINE
  5
D6
100
AcDbEntity
  8
1粗实线-A (轮廓线)
  6
CONTINUOUS
 62
    7
370
   -1
100
AcDbLine
 10
276.34552494986
 20
144.6737362517
 11
275.6455249503201
 21
144.6737362517
  0
LINE
  5
D7
100
AcDbEntity
  8
1粗实线-A (轮廓线)
  6
CONTINUOUS
 62
    7
370
   -1
100
AcDbLine
 10
272.04552494942
 20
144.6737362517
 11
270.27916361804
 21
144.6737362517
  0
LINE
  5
D8
100
AcDbEntity
  8
1粗实线-A (轮廓线)
  6
CONTINUOUS
 62
    7
370
   -1
100
AcDbLine
 10
297.8855249482601
 20
144.94085423664
 11
298.1785191527201
 21
144.94085423664
  0
LINE
  5
D9
100
AcDbEntity
  8
1粗实线-A (轮廓线)
  6
CONTINUOUS
 62
    7
370
   -1
100
AcDbLine
 10
265.7540104534801
 20
145.12710508334
 11
266.6237988815401
 21
145.12710508334
  0
LINE
  5
DA
100
AcDbEntity
  8
1粗实线-A (轮廓线)
  6
CONTINUOUS
 62
    7
370
   -1
100
AcDbLine
 10
264.34140154896
 20
145.1499997518
 11
265.7376294626201
 21
145.1500000032602
  0
LINE
  5
DB
100
AcDbEntity
  8
1粗实线-A (轮廓线)
  6
CONTINUOUS
 62
    7
370
   -1
100
AcDbLine
 10
285.5646351984201
 20
134.4357203549
 11
284.1968292726201
 21
138.1937362500801
  0
LINE
  5
DC
100
AcDbEntity
  8
1粗实线-A (轮廓线)
  6
CONTINUOUS
 62
    7
370
   -1
100
AcDbLine
 10
286.6088381392201
 20
134.7829811945401
 11
285.3674248206801
 21
138.1937362500801
  0
LINE
  5
DD
100
AcDbEntity
  8
1粗实线-A (轮廓线)
  6
CONTINUOUS
 62
    7
370
   -1
100
AcDbLine
 10
286.80542818038
 20
135.99713713554
 11
286.0059314837201
 21
138.1937362500801
  0
LINE
  5
DE
100
AcDbEntity
  8
1粗实线-A (轮廓线)
  6
CONTINUOUS
 62
    7
370
   -1
100
AcDbLine
 10
283.75832260836
 20
137.6442407679201
 11
283.75832260836
 21
138.1937362500801
  0
LINE
  5
DF
100
AcDbEntity
  8
1粗实线-A (轮廓线)
  6
CONTINUOUS
 62
    7
370
   -1
100
AcDbLine
 10
283.8955249501601
 20
130.42685691976
 11
283.8955249501601
 21
132.42435535554
  0
LINE
  5
E0
100
AcDbEntity
  8
1粗实线-A (轮廓线)
  6
CONTINUOUS
 62
    7
370
   -1
100
AcDbLine
 10
284.6455249487601
 20
165.2737362505
 11
284.6455249487601
 21
166.8256061388802
  0
LINE
  5
E1
100
AcDbEntity
  8
1粗实线-A (轮廓线)
  6
CONTINUOUS
 62
    7
370
   -1
100
AcDbLine
 10
285.19552494858
 20
139.1937362516002
 11
285.19552494858
 21
141
  0
LINE
  5
E2
100
AcDbEntity
  8
1粗实线-A (轮廓线)
  6
CONTINUOUS
 62
    7
370
   -1
100
AcDbLine
 10
279.77624677014
 20
134.76659251764
 11
281.0236250780201
 21
138.1937362500801
  0
LINE
  5
E3
100
AcDbEntity
  8
1粗实线-A (轮廓线)
  6
CONTINUOUS
 62
    7
370
   -1
100
AcDbLine
 10
280.8099086525201
 20
134.39037035924
 11
282.1942206260801
 21
138.1937362500801
  0
LINE
  5
E4
100
AcDbEntity
  8
1粗实线-A (轮廓线)
  6
CONTINUOUS
 62
    7
370
   -1
100
AcDbLine
 10
281.7511364576401
 20
135.22208986166
 11
282.63272729034
 21
137.6442407679201
  0
LINE
  5
E5
100
AcDbEntity
  8
1粗实线-A (轮廓线)
  6
CONTINUOUS
 62
    7
370
   -1
100
AcDbLine
 10
297.7355249485399
 20
145.72104201586
 11
297.8855249482601
 21
145.72104201586
  0
LINE
  5
E6
100
AcDbEntity
  8
1粗实线-A (轮廓线)
  6
CONTINUOUS
 62
    7
370
   -1
100
AcDbLine
 10
268.0555249843001
 20
145.84347292416
 11
267.7074100976001
 21
145.84347292416
  0
LINE
  5
E7
100
AcDbEntity
  8
1粗实线-A (轮廓线)
  6
CONTINUOUS
 62
    7
370
   -1
100
AcDbLine
 10
288.89565695648
 20
138.1937362500801
 11
291.6175722365401
 21
134.3846684326202
  0
LINE
  5
E8
100
AcDbEntity
  8
1粗实线-A (轮廓线)
  6
CONTINUOUS
 62
    7
370
   -1
100
AcDbLine
 10
292.7788364519799
 20
133.7915765581
 11
289.6331046611601
 21
138.1937362500801
  0
LINE
  5
E9
100
AcDbEntity
  8
1粗实线-A (轮廓线)
  6
CONTINUOUS
 62
    7
370
   -1
100
AcDbLine
 10
293.6738151700201
 20
134.43111787236
 11
290.9850921172001
 21
138.1937362500801
  0
LINE
  5
EA
100
AcDbEntity
  8
1粗实线-A (轮廓线)
  6
CONTINUOUS
 62
    7
370
   -1
100
AcDbLine
 10
285.4455249514999
 20
127.86014683856
 11
285.4455249514999
 21
123.97560613928
  0
LINE
  5
EB
100
AcDbEntity
  8
1粗实线-A (轮廓线)
  6
CONTINUOUS
 62
    7
370
   -1
100
AcDbLine
 10
285.47929718266
 20
129.9135925691002
 11
285.47929718266
 21
128.4618779058601
  0
LINE
  5
EC
100
AcDbEntity
  8
1粗实线-A (轮廓线)
  6
CONTINUOUS
 62
    7
370
   -1
100
AcDbLine
 10
285.7955249500001
 20
129.6256061372002
 11
285.7955249500001
 21
128.30510938272
  0
LINE
  5
ED
100
AcDbEntity
  8
1粗实线-A (轮廓线)
  6
CONTINUOUS
 62
    7
370
   -1
100
AcDbLine
 10
285.7955249500001
 20
124.4756061375
 11
285.7955249500001
 21
127.7134638985001
  0
LINE
  5
EE
100
AcDbEntity
  8
1粗实线-A (轮廓线)
  6
CONTINUOUS
 62
    7
370
   -1
100
AcDbLine
 10
285.94552494972
 20
124.11853471804
 11
285.94552494972
 21
123.97560613928
  0
LINE
  5
EF
100
AcDbEntity
  8
1粗实线-A (轮廓线)
  6
CONTINUOUS
 62
    7
370
   -1
100
AcDbLine
 10
285.99552494878
 20
141
 11
285.99552494878
 21
139.1937362516002
  0
LINE
  5
F0
100
AcDbEntity
  8
1粗实线-A (轮廓线)
  6
CONTINUOUS
 62
    7
370
   -1
100
AcDbLine
 10
286.1539001286001
 20
165.2737362505
 11
286.1539001286001
 21
165.8256061373601
  0
LINE
  5
F1
100
AcDbEntity
  8
1粗实线-A (轮廓线)
  6
CONTINUOUS
 62
    7
370
   -1
100
AcDbLine
 10
286.6455249492601
 20
123.2756061372002
 11
286.6455249492601
 21
123.97560613928
  0
LINE
  5
F2
100
AcDbEntity
  8
1粗实线-A (轮廓线)
  6
CONTINUOUS
 62
    7
370
   -1
100
AcDbLine
 10
286.8455249480401
 20
129.1956958260802
 11
286.8455249480401
 21
130.8773133340601
  0
LINE
  5
F3
100
AcDbEntity
  8
1粗实线-A (轮廓线)
  6
CONTINUOUS
 62
    7
370
   -1
100
AcDbLine
 10
286.8455249480401
 20
131.97389894378
 11
286.8455249480401
 21
133.6555164492202
  0
LINE
  5
F4
100
AcDbEntity
  8
1粗实线-A (轮廓线)
  6
CONTINUOUS
 62
    7
370
   -1
100
AcDbLine
 10
287.3955249478599
 20
164.7424160660001
 11
287.3955249478599
 21
165.8256061373601
  0
LINE
  5
F5
100
AcDbEntity
  8
1粗实线-A (轮廓线)
  6
CONTINUOUS
 62
    7
370
   -1
100
AcDbLine
 10
269.7530334384001
 20
129.65827272668
 11
268.9056265480001
 21
128.86770560068
  0
LINE
  5
F6
100
AcDbEntity
  8
1粗实线-A (轮廓线)
  6
CONTINUOUS
 62
    7
370
   -1
100
AcDbLine
 10
269.22583943564
 20
128.61939739016
 11
270.0988702549801
 21
129.43386972108
  0
LINE
  5
F7
100
AcDbEntity
  8
1粗实线-A (轮廓线)
  6
CONTINUOUS
 62
    7
370
   -1
100
AcDbLine
 10
267.9250342216601
 20
148.0937362519202
 11
267.20038795442
 21
148.0937362519202
  0
LINE
  5
F8
100
AcDbEntity
  8
1粗实线-A (轮廓线)
  6
CONTINUOUS
 62
    7
370
   -1
100
AcDbLine
 10
292.73103083004
 20
139.53157637856
 11
294.5218318280599
 21
137.78117637924
  0
LINE
  5
F9
100
AcDbEntity
  8
1粗实线-A (轮廓线)
  6
CONTINUOUS
 62
    7
370
   -1
100
AcDbLine
 10
293.48889137426
 20
135.7218911836201
 11
291.72253982188
 21
138.1937362500801
  0
LINE
  5
FA
100
AcDbEntity
  8
1粗实线-A (轮廓线)
  6
CONTINUOUS
 62
    7
370
   -1
100
AcDbLine
 10
287.4455249494599
 20
129.1956958260802
 11
287.4455249494599
 21
130.8773133340601
  0
LINE
  5
FB
100
AcDbEntity
  8
1粗实线-A (轮廓线)
  6
CONTINUOUS
 62
    7
370
   -1
100
AcDbLine
 10
287.4455249494599
 20
131.97389894378
 11
287.4455249494599
 21
133.6555164492202
  0
LINE
  5
FC
100
AcDbEntity
  8
1粗实线-A (轮廓线)
  6
CONTINUOUS
 62
    7
370
   -1
100
AcDbLine
 10
287.9623348785001
 20
164.7424160660001
 11
287.9623348785001
 21
165.07560613876
  0
LINE
  5
FD
100
AcDbEntity
  8
1粗实线-A (轮廓线)
  6
CONTINUOUS
 62
    7
370
   -1
100
AcDbLine
 10
288.6455249497601
 20
165.07560613876
 11
288.6455249497601
 21
165.8256061373601
  0
LINE
  5
FE
100
AcDbEntity
  8
1粗实线-A (轮廓线)
  6
CONTINUOUS
 62
    7
370
   -1
100
AcDbLine
 10
264.19194880494
 20
150.1499983319201
 11
264.67053032174
 21
150.1499983319201
  0
LINE
  5
FF
100
AcDbEntity
  8
1粗实线-A (轮廓线)
  6
CONTINUOUS
 62
    7
370
   -1
100
AcDbLine
 10
301.62051952296
 20
150.1499983319201
 11
302.09901190862
 21
150.1499983319201
  0
LINE
  5
100
100
AcDbEntity
  8
1粗实线-A (轮廓线)
  6
CONTINUOUS
 62
    7
370
   -1
100
AcDbLine
 10
299.5455249480401
 20
151.0937362514002
 11
298.74460454582
 21
151.0937362514002
  0
LINE
  5
101
100
AcDbEntity
  8
1粗实线-A (轮廓线)
  6
CONTINUOUS
 62
    7
370
   -1
100
AcDbLine
 10
268.1801475366801
 20
164.1937362515
 11
267.75234520204
 21
164.54085189458
  0
LINE
  5
102
100
AcDbEntity
  8
1粗实线-A (轮廓线)
  6
CONTINUOUS
 62
    7
370
   -1
100
AcDbLine
 10
295.7800210693599
 20
139.0684058977401
 11
293.9892200688
 21
140.81880589706
  0
LINE
  5
103
100
AcDbEntity
  8
1粗实线-A (轮廓线)
  6
CONTINUOUS
 62
    7
370
   -1
100
AcDbLine
 10
290.3955249498799
 20
132.42435535554
 11
290.3955249498799
 21
130.42685691976
  0
LINE
  5
104
100
AcDbEntity
  8
1粗实线-A (轮廓线)
  6
CONTINUOUS
 62
    7
370
   -1
100
AcDbLine
 10
290.6455249502601
 20
124.97560613826
 11
290.6455249502601
 21
123.97560613928
  0
LINE
  5
105
100
AcDbEntity
  8
1粗实线-A (轮廓线)
  6
CONTINUOUS
 62
    7
370
   -1
100
AcDbLine
 10
290.8955249481
 20
130.1846387732601
 11
290.8955249481
 21
132.66657350204
  0
LINE
  5
106
100
AcDbEntity
  8
1粗实线-A (轮廓线)
  6
CONTINUOUS
 62
    7
370
   -1
100
AcDbLine
 10
291.24552494914
 20
123.97560613928
 11
291.24552494914
 21
124.97560613826
  0
LINE
  5
107
100
AcDbEntity
  8
1粗实线-A (轮廓线)
  6
CONTINUOUS
 62
    7
370
   -1
100
AcDbLine
 10
291.3955249488599
 20
132.66657350204
 11
291.3955249488599
 21
130.1846387732601
  0
LINE
  5
108
100
AcDbEntity
  8
1粗实线-A (轮廓线)
  6
CONTINUOUS
 62
    7
370
   -1
100
AcDbLine
 10
299.5455249480401
 20
151.91490184808
 11
298.99552494822
 21
151.91490184808
  0
LINE
  5
109
100
AcDbEntity
  8
1粗实线-A (轮廓线)
  6
CONTINUOUS
 62
    7
370
   -1
100
AcDbLine
 10
267.4880769091401
 20
152.1952344751201
 11
268.5555249495001
 21
152.1952344751201
  0
LINE
  5
10A
100
AcDbEntity
  8
1粗实线-A (轮廓线)
  6
CONTINUOUS
 62
    7
370
   -1
100
AcDbLine
 10
297.7355249485399
 20
152.1952344751201
 11
298.99552494822
 21
152.1952344751201
  0
LINE
  5
10B
100
AcDbEntity
  8
1粗实线-A (轮廓线)
  6
CONTINUOUS
 62
    7
370
   -1
100
AcDbLine
 10
267.85552494996
 20
152.7952344765401
 11
268.5555249495001
 21
152.7952344765401
  0
LINE
  5
10C
100
AcDbEntity
  8
1粗实线-A (轮廓线)
  6
CONTINUOUS
 62
    7
370
   -1
100
AcDbLine
 10
297.7355249485399
 20
152.7952344765401
 11
298.33552494996
 21
152.7952344765401
  0
LINE
  5
10D
100
AcDbEntity
  8
1粗实线-A (轮廓线)
  6
CONTINUOUS
 62
    7
370
   -1
100
AcDbLine
 10
266.7455266264001
 20
152.89373625058
 11
267.4880769091401
 21
152.89373625058
  0
LINE
  5
10E
100
AcDbEntity
  8
1粗实线-A (轮廓线)
  6
CONTINUOUS
 62
    7
370
   -1
100
AcDbLine
 10
291.89552494962
 20
130.62777754662
 11
291.89552494962
 21
132.2234347312201
  0
LINE
  5
10F
100
AcDbEntity
  8
1粗实线-A (轮廓线)
  6
CONTINUOUS
 62
    7
370
   -1
100
AcDbLine
 10
293.14552494898
 20
143.55000026194
 11
293.1465871348689
 21
141.0494916536438
  0
LINE
  5
110
100
AcDbEntity
  8
1粗实线-A (轮廓线)
  6
CONTINUOUS
 62
    7
370
   -1
100
AcDbLine
 10
266.7455249500001
 20
153.91490184604
 11
267.29552494982
 21
153.91490184604
  0
LINE
  5
111
100
AcDbEntity
  8
1粗实线-A (轮廓线)
  6
CONTINUOUS
 62
    7
370
   -1
100
AcDbLine
 10
298.5440134509399
 20
145.60884239266
 11
298.16337949796
 21
145.8470438111
  0
LWPOLYLINE
  5
112
100
AcDbEntity
  8
1粗实线-A (轮廓线)
  6
CONTINUOUS
 62
    7
370
   -1
100
AcDbPolyline
 90
    3
 70
    0
 43
0
 10
301.9919697554201
 20
131.20253824114
 10
301.9867211451401
 20
131.2110228393601
 10
301.9671769297199
 20
131.2479055240401
  0
LINE
  5
113
100
AcDbEntity
  8
1粗实线-A (轮廓线)
  6
CONTINUOUS
 62
    7
370
   -1
100
AcDbLine
 10
294.4455249499401
 20
129.2872656607201
 11
294.4455249499401
 21
130.8773133340601
  0
LINE
  5
114
100
AcDbEntity
  8
1粗实线-A (轮廓线)
  6
CONTINUOUS
 62
    7
370
   -1
100
AcDbLine
 10
294.4455249499401
 20
131.97389894378
 11
294.4455249499401
 21
133.56394661712
  0
LINE
  5
115
100
AcDbEntity
  8
1粗实线-A (轮廓线)
  6
CONTINUOUS
 62
    7
370
   -1
100
AcDbLine
 10
294.94552494816
 20
136.49373625156
 11
294.94552494816
 21
137.49373625054
  0
LINE
  5
116
100
AcDbEntity
  8
1粗实线-A (轮廓线)
  6
CONTINUOUS
 62
    7
370
   -1
100
AcDbLine
 10
295.04552494882
 20
133.6733828168401
 11
295.04552494882
 21
131.97389894378
  0
LINE
  5
117
100
AcDbEntity
  8
1粗实线-A (轮廓线)
  6
CONTINUOUS
 62
    7
370
   -1
100
AcDbLine
 10
295.04552494882
 20
130.8773133340601
 11
295.04552494882
 21
129.1778294584601
  0
LINE
  5
118
100
AcDbEntity
  8
1粗实线-A (轮廓线)
  6
CONTINUOUS
 62
    7
370
   -1
100
AcDbLine
 10
266.0867788405201
 20
126.2533558459002
 11
266.7772114155371
 21
126.5300580993352
  0
LINE
  5
119
100
AcDbEntity
  8
1粗实线-A (轮廓线)
  6
CONTINUOUS
 62
    7
370
   -1
100
AcDbLine
 10
298.33552494996
 20
156.29373625016
 11
297.7355249485399
 21
156.29373625016
  0
LINE
  5
11A
100
AcDbEntity
  8
1粗实线-A (轮廓线)
  6
CONTINUOUS
 62
    7
370
   -1
100
AcDbLine
 10
268.05552494874
 20
156.69373625026
 11
267.4555249498601
 21
156.69373625026
  0
LINE
  5
11B
100
AcDbEntity
  8
1粗实线-A (轮廓线)
  6
CONTINUOUS
 62
    7
370
   -1
100
AcDbLine
 10
298.99552494822
 20
156.8937362515801
 11
297.7355249485399
 21
156.8937362515801
  0
LINE
  5
11C
100
AcDbEntity
  8
1粗实线-A (轮廓线)
  6
CONTINUOUS
 62
    7
370
   -1
100
AcDbLine
 10
267.29552494982
 20
156.8937362515801
 11
268.05552494874
 21
156.8937362515801
  0
LINE
  5
11D
100
AcDbEntity
  8
1粗实线-A (轮廓线)
  6
CONTINUOUS
 62
    7
370
   -1
100
AcDbLine
 10
299.5455249480401
 20
157.4937362504601
 11
298.99552494822
 21
157.4937362504601
  0
LINE
  5
11E
100
AcDbEntity
  8
1粗实线-A (轮廓线)
  6
CONTINUOUS
 62
    7
370
   -1
100
AcDbLine
 10
266.7455249500001
 20
157.4937362504601
 11
268.05552494874
 21
157.4937362504601
  0
LINE
  5
11F
100
AcDbEntity
  8
1粗实线-A (轮廓线)
  6
CONTINUOUS
 62
    7
370
   -1
100
AcDbLine
 10
301.9671769297199
 20
131.2479055240401
 11
301.9455467596201
 21
131.2953554850201
  0
LINE
  5
120
100
AcDbEntity
  8
1粗实线-A (轮廓线)
  6
CONTINUOUS
 62
    7
370
   -1
100
AcDbLine
 10
295.5155249486199
 20
123.6257863995002
 11
295.5155249486199
 21
124.3759814285216
  0
LINE
  5
121
100
AcDbEntity
  8
1粗实线-A (轮廓线)
  6
CONTINUOUS
 62
    7
370
   -1
100
AcDbLine
 10
295.5455249495801
 20
137.49373625054
 11
295.5455249495801
 21
136.49373625156
  0
LINE
  5
122
100
AcDbEntity
  8
1粗实线-A (轮廓线)
  6
CONTINUOUS
 62
    7
370
   -1
100
AcDbLine
 10
295.84552494902
 20
143.9000002502801
 11
295.84552494902
 21
144.4737362503802
  0
LINE
  5
123
100
AcDbEntity
  8
1粗实线-A (轮廓线)
  6
CONTINUOUS
 62
    7
370
   -1
100
AcDbLine
 10
296.04552495034
 20
133.48776519976
 11
296.04552495034
 21
134.64880803388
  0
LINE
  5
124
100
AcDbEntity
  8
1粗实线-A (轮廓线)
  6
CONTINUOUS
 62
    7
370
   -1
100
AcDbLine
 10
296.14552494846
 20
136.1683952309201
 11
296.14552494846
 21
139.1937362516002
  0
LINE
  5
125
100
AcDbEntity
  8
1粗实线-A (轮廓线)
  6
CONTINUOUS
 62
    7
370
   -1
100
AcDbLine
 10
296.4455249478999
 20
133.26204290546
 11
296.4455249478999
 21
134.5092777262
  0
LINE
  5
126
100
AcDbEntity
  8
1粗实线-A (轮廓线)
  6
CONTINUOUS
 62
    7
370
   -1
100
AcDbLine
 10
296.6455249492201
 20
165.6952215035401
 11
296.6455249492201
 21
164.9126615446602
  0
LINE
  5
127
100
AcDbEntity
  8
1粗实线-A (轮廓线)
  6
CONTINUOUS
 62
    7
370
   -1
100
AcDbLine
 10
296.7955249489401
 20
141.19714970984
 11
296.7955249489401
 21
135.9356987595601
  0
LINE
  5
128
100
AcDbEntity
  8
1粗实线-A (轮廓线)
  6
CONTINUOUS
 62
    7
370
   -1
100
AcDbLine
 10
297.0855249480601
 20
144.52373625198
 11
297.0855249480601
 21
144.6737362517
  0
LINE
  5
129
100
AcDbEntity
  8
1粗实线-A (轮廓线)
  6
CONTINUOUS
 62
    7
370
   -1
100
AcDbLine
 10
266.7455249500001
 20
158.29373625066
 11
267.4955249486
 21
158.29373625066
  0
LINE
  5
12A
100
AcDbEntity
  8
1粗实线-A (轮廓线)
  6
CONTINUOUS
 62
    7
370
   -1
100
AcDbLine
 10
298.7955249494401
 20
158.29373625066
 11
299.5455249480401
 21
158.29373625066
  0
LWPOLYLINE
  5
12B
100
AcDbEntity
  8
1粗实线-A (轮廓线)
  6
CONTINUOUS
 62
    7
370
   -1
100
AcDbPolyline
 90
    7
 70
    0
 43
0
 10
301.9455467596201
 20
131.2953554850201
 10
301.9231789963801
 20
131.3532781377801
 10
301.9015831264401
 20
131.4218451253602
 10
301.88264288238
 20
131.50131175332
 10
301.8688237736201
 20
131.59109668932
 10
301.86280708512
 20
131.6892178900802
 10
301.86271839594
 20
131.7025382419
  0
LINE
  5
12C
100
AcDbEntity
  8
1粗实线-A (轮廓线)
  6
CONTINUOUS
 62
    7
370
   -1
100
AcDbLine
 10
297.5987537742801
 20
144.52373625198
 11
297.5987537742801
 21
144.07373625028
  0
LINE
  5
12D
100
AcDbEntity
  8
1粗实线-A (轮廓线)
  6
CONTINUOUS
 62
    7
370
   -1
100
AcDbLine
 10
297.7355249485399
 20
152.7952344765401
 11
297.7355249485399
 21
145.72104201586
  0
LINE
  5
12E
100
AcDbEntity
  8
1粗实线-A (轮廓线)
  6
CONTINUOUS
 62
    7
370
   -1
100
AcDbLine
 10
297.7355249485399
 20
156.29373625016
 11
297.7355249485399
 21
164.5362997980201
  0
LINE
  5
12F
100
AcDbEntity
  8
1粗实线-A (轮廓线)
  6
CONTINUOUS
 62
    7
370
   -1
100
AcDbLine
 10
297.8855249482601
 20
144.52373625198
 11
297.8855249482601
 21
145.72104201586
  0
LINE
  5
130
100
AcDbEntity
  8
1粗实线-A (轮廓线)
  6
CONTINUOUS
 62
    7
370
   -1
100
AcDbLine
 10
297.9185553495599
 20
135.2621263348001
 11
297.9185553495599
 21
142.30253824328
  0
LINE
  5
131
100
AcDbEntity
  8
1粗实线-A (轮廓线)
  6
CONTINUOUS
 62
    7
370
   -1
100
AcDbLine
 10
298.33552494996
 20
152.7952344765401
 11
298.33552494996
 21
156.29373625016
  0
LINE
  5
132
100
AcDbEntity
  8
1粗实线-A (轮廓线)
  6
CONTINUOUS
 62
    7
370
   -1
100
AcDbLine
 10
298.4455249484001
 20
131.9815112221801
 11
298.4455249484001
 21
130.86970105312
  0
LINE
  5
133
100
AcDbEntity
  8
1粗实线-A (轮廓线)
  6
CONTINUOUS
 62
    7
370
   -1
100
AcDbLine
 10
298.7955249494401
 20
158.29373625066
 11
298.7955249494401
 21
161.9256061370201
  0
LINE
  5
134
100
AcDbEntity
  8
1粗实线-A (轮廓线)
  6
CONTINUOUS
 62
    7
370
   -1
100
AcDbLine
 10
298.94552494916
 20
132.5037990701601
 11
298.94552494916
 21
130.34741320514
  0
LINE
  5
135
100
AcDbEntity
  8
1粗实线-A (轮廓线)
  6
CONTINUOUS
 62
    7
370
   -1
100
AcDbLine
 10
298.99552494822
 20
151.0937362514002
 11
298.99552494822
 21
158.29373625066
  0
LINE
  5
136
100
AcDbEntity
  8
1粗实线-A (轮廓线)
  6
CONTINUOUS
 62
    7
370
   -1
100
AcDbLine
 10
296.21921544116
 20
136.1469203665802
 11
295.99417363826
 21
135.28336395806
  0
LINE
  5
137
100
AcDbEntity
  8
1粗实线-A (轮廓线)
  6
CONTINUOUS
 62
    7
370
   -1
100
AcDbLine
 10
296.52205318702
 20
135.1279932070802
 11
296.73654570698
 21
135.9510686831002
  0
LINE
  5
138
100
AcDbEntity
  8
1粗实线-A (轮廓线)
  6
CONTINUOUS
 62
    7
370
   -1
100
AcDbLine
 10
299.5455249480401
 20
157.4937362504601
 11
299.5455249480401
 21
151.91490184808
  0
LINE
  5
139
100
AcDbEntity
  8
1粗实线-A (轮廓线)
  6
CONTINUOUS
 62
    7
370
   -1
100
AcDbLine
 10
299.5455249480401
 20
150.0939074865202
 11
299.5455249480401
 21
151.0937362514002
  0
LINE
  5
13A
100
AcDbEntity
  8
1粗实线-A (轮廓线)
  6
CONTINUOUS
 62
    7
370
   -1
100
AcDbLine
 10
299.5455249480401
 20
158.29373625066
 11
299.5455249480401
 21
161.9256061370201
  0
LINE
  5
13B
100
AcDbEntity
  8
1粗实线-A (轮廓线)
  6
CONTINUOUS
 62
    7
370
   -1
100
AcDbLine
 10
300.5455249495601
 20
157.5828766614601
 11
300.5455249495601
 21
152.1224263073
  0
LINE
  5
13C
100
AcDbEntity
  8
1粗实线-A (轮廓线)
  6
CONTINUOUS
 62
    7
370
   -1
100
AcDbLine
 10
300.7455249483401
 20
128.92560613766
 11
300.7455249483401
 21
129.32282809658
  0
LINE
  5
13D
100
AcDbEntity
  8
1粗实线-A (轮廓线)
  6
CONTINUOUS
 62
    7
370
   -1
100
AcDbLine
 10
301.09552494938
 20
149.69831406384
 11
301.09552494938
 21
151.00999653572
  0
LINE
  5
13E
100
AcDbEntity
  8
1粗实线-A (轮廓线)
  6
CONTINUOUS
 62
    7
370
   -1
100
AcDbLine
 10
301.09552494938
 20
158.6953064330402
 11
301.09552494938
 21
161.9256061370201
  0
LWPOLYLINE
  5
13F
100
AcDbEntity
  8
1粗实线-A (轮廓线)
  6
CONTINUOUS
 62
    7
370
   -1
100
AcDbPolyline
 90
    3
 70
    0
 43
0
 10
301.93290134676
 20
144.17826445626
 10
301.95734031744
 20
144.2365048325402
 10
301.9799162463801
 20
144.28183522702
  0
LINE
  5
140
100
AcDbEntity
  8
1粗实线-A (轮廓线)
  6
CONTINUOUS
 62
    7
370
   -1
100
AcDbLine
 10
301.9799162463801
 20
144.28183522702
 11
301.9986615225801
 21
144.3137415894201
  0
LINE
  5
141
100
AcDbEntity
  8
1粗实线-A (轮廓线)
  6
CONTINUOUS
 62
    7
370
   -1
100
AcDbLine
 10
301.3955249488199
 20
130.30253824282
 11
301.3955249488199
 21
131.20253824114
  0
LINE
  5
142
100
AcDbEntity
  8
1粗实线-A (轮廓线)
  6
CONTINUOUS
 62
    7
370
   -1
100
AcDbLine
 10
301.62051943914
 20
150.1499983319201
 11
301.62051943914
 21
161.9272905177
  0
LINE
  5
143
100
AcDbEntity
  8
1粗实线-A (轮廓线)
  6
CONTINUOUS
 62
    7
370
   -1
100
AcDbLine
 10
301.86271839594
 20
131.7025382419
 11
301.86271839594
 21
143.8025348826
  0
LINE
  5
144
100
AcDbEntity
  8
1粗实线-A (轮廓线)
  6
CONTINUOUS
 62
    7
370
   -1
100
AcDbLine
 10
302.0996850822801
 20
144.45223803074
 11
302.09802915976
 21
161.96681593776
  0
LINE
  5
145
100
AcDbEntity
  8
1粗实线-A (轮廓线)
  6
CONTINUOUS
 62
    7
370
   -1
100
AcDbLine
 10
302.26588911106
 20
128.92560613766
 11
302.26588911106
 21
131.0525382414202
  0
LWPOLYLINE
  5
146
100
AcDbEntity
  8
1粗实线-A (轮廓线)
  6
CONTINUOUS
 62
    7
370
   -1
100
AcDbPolyline
 90
    6
 70
    0
 43
0
 10
301.8627183934
 20
143.80253449144
 10
301.86283973174
 20
143.8178517049
 10
301.8701393234401
 20
143.9253477357801
 10
301.88655595304
 20
144.0225852959401
 10
301.9085139761801
 20
144.1070401562401
 10
301.93290134676
 20
144.17826445626
  0
LINE
  5
147
100
AcDbEntity
  8
1粗实线-A (轮廓线)
  6
CONTINUOUS
 62
    7
370
   -1
100
AcDbLine
 10
267.1693626850001
 20
163.69373625074
 11
267.60327595738
 21
163.6937361821601
  0
LINE
  5
148
100
AcDbEntity
  8
1粗实线-A (轮廓线)
  6
CONTINUOUS
 62
    7
370
   -1
100
AcDbLine
 10
298.68777329042
 20
163.69373604754
 11
299.12169269436
 21
163.69373625074
  0
LINE
  5
149
100
AcDbEntity
  8
1粗实线-A (轮廓线)
  6
CONTINUOUS
 62
    7
370
   -1
100
AcDbLine
 10
268.8322180740399
 20
164.7424160660001
 11
297.4588318240001
 21
164.7424160660001
  0
LINE
  5
14A
100
AcDbEntity
  8
1粗实线-A (轮廓线)
  6
CONTINUOUS
 62
    7
370
   -1
100
AcDbLine
 10
270.6455249503401
 20
165.07560613876
 11
278.3287150195399
 21
165.07560613876
  0
LINE
  5
14B
100
AcDbEntity
  8
1粗实线-A (轮廓线)
  6
CONTINUOUS
 62
    7
370
   -1
100
AcDbLine
 10
287.9623348785001
 20
165.07560613876
 11
295.6455249477001
 21
165.07560613876
  0
LINE
  5
14C
100
AcDbEntity
  8
1粗实线-A (轮廓线)
  6
CONTINUOUS
 62
    7
370
   -1
100
AcDbLine
 10
280.1371497719799
 20
165.2737362505
 11
286.1539001286001
 21
165.2737362505
  0
LINE
  5
14D
100
AcDbEntity
  8
1粗实线-A (轮廓线)
  6
CONTINUOUS
 62
    7
370
   -1
100
AcDbLine
 10
278.8955249501801
 20
165.62560613858
 11
280.1371497719799
 21
165.62560613858
  0
LINE
  5
14E
100
AcDbEntity
  8
1粗实线-A (轮廓线)
  6
CONTINUOUS
 62
    7
370
   -1
100
AcDbLine
 10
286.1539001286001
 20
165.62560613858
 11
287.3955249478599
 21
165.62560613858
  0
LINE
  5
14F
100
AcDbEntity
  8
1粗实线-A (轮廓线)
  6
CONTINUOUS
 62
    7
370
   -1
100
AcDbLine
 10
270.6455249579601
 20
165.8256061373601
 11
281.6455249492801
 21
165.8256061373601
  0
LINE
  5
150
100
AcDbEntity
  8
1粗实线-A (轮廓线)
  6
CONTINUOUS
 62
    7
370
   -1
100
AcDbLine
 10
284.6455249487601
 20
165.8256061373601
 11
295.6455249400801
 21
165.8256061373601
  0
LINE
  5
151
100
AcDbEntity
  8
1粗实线-A (轮廓线)
  6
CONTINUOUS
 62
    7
370
   -1
100
AcDbLine
 10
270.6455249503401
 20
166.8256061388802
 11
295.6455249502401
 21
166.8256061388802
  0
LINE
  5
152
100
AcDbEntity
  8
1粗实线-A (轮廓线)
  6
CONTINUOUS
 62
    7
370
   -1
100
AcDbLine
 10
270.6454834746801
 20
168.37486723136
 11
295.78383928118
 21
168.37897384494
  0
LINE
  5
153
100
AcDbEntity
  8
1粗实线-A (轮廓线)
  6
CONTINUOUS
 62
    7
370
   -1
100
AcDbLine
 10
295.6471501209801
 20
167.9006007402202
 11
270.64384100654
 21
167.9006007402202
  0
CIRCLE
  5
154
100
AcDbEntity
  8
1粗实线-A (轮廓线)
  6
CONTINUOUS
 62
    7
370
   -1
100
AcDbCircle
 10
275.15519710954
 20
127.2337362524202
 40
0.75000000114
  0
CIRCLE
  5
155
100
AcDbEntity
  8
1粗实线-A (轮廓线)
  6
CONTINUOUS
 62
    7
370
   -1
100
AcDbCircle
 10
265.46552494968
 20
127.6937362519001
 40
0.4499999991600001
  0
ARC
  5
156
100
AcDbEntity
  8
1粗实线-A (轮廓线)
  6
CONTINUOUS
 62
    7
370
   -1
100
AcDbCircle
 10
266.04789592362
 20
127.9500000015001
 40
0.4000000001
100
AcDbArc
 50
90
 51
159.1351545795998
  0
ARC
  5
157
100
AcDbEntity
  8
1粗实线-A (轮廓线)
  6
CONTINUOUS
 62
    7
370
   -1
100
AcDbCircle
 10
265.46559539912
 20
127.9812193167601
 40
0.19999999878
100
AcDbArc
 50
43.96689474690874
 51
90.00000000019539
  0
ARC
  5
158
100
AcDbEntity
  8
1粗实线-A (轮廓线)
  6
CONTINUOUS
 62
    7
370
   -1
100
AcDbCircle
 10
266.12397982022
 20
126.16053296576
 40
0.10000000066
100
AcDbArc
 50
111.8396209326039
 51
211.4471538698039
  0
ARC
  5
159
100
AcDbEntity
  8
1粗实线-A (轮廓线)
  6
CONTINUOUS
 62
    7
370
   -1
100
AcDbCircle
 10
270.6795121798
 20
123.6257151144
 40
0.10000000066
100
AcDbArc
 50
270.3674223157056
 51
0
  0
ARC
  5
15A
100
AcDbEntity
  8
1粗实线-A (轮廓线)
  6
CONTINUOUS
 62
    7
370
   -1
100
AcDbCircle
 10
266.62552797892
 20
131.1500000023
 40
2.800000000699999
100
AcDbArc
 50
270
 51
281.0450260652018
  0
ARC
  5
15B
100
AcDbEntity
  8
1粗实线-A (轮廓线)
  6
CONTINUOUS
 62
    7
370
   -1
100
AcDbCircle
 10
268.62499696702
 20
136.1385630020401
 40
2.20051654892
100
AcDbArc
 50
332.8107236635053
 51
358.9826648085943
  0
ARC
  5
15C
100
AcDbEntity
  8
1粗实线-A (轮廓线)
  6
CONTINUOUS
 62
    7
370
   -1
100
AcDbCircle
 10
266.62552797892
 20
131.1500000023
 40
2.0000000005
100
AcDbArc
 50
270
 51
275.1905853327988
  0
ARC
  5
15D
100
AcDbEntity
  8
1粗实线-A (轮廓线)
  6
CONTINUOUS
 62
    7
370
   -1
100
AcDbCircle
 10
268.62499696702
 20
136.1385630020401
 40
1.37748844644
100
AcDbArc
 50
305.5316466388014
 51
1.370250916702435
  0
ARC
  5
15E
100
AcDbEntity
  8
1粗实线-A (轮廓线)
  6
CONTINUOUS
 62
    7
370
   -1
100
AcDbCircle
 10
266.62552797892
 20
143.1500000434002
 40
1.976969599519999
100
AcDbArc
 50
17.26960064860196
 51
20.10828857440985
  0
ARC
  5
15F
100
AcDbEntity
  8
1粗实线-A (轮廓线)
  6
CONTINUOUS
 62
    7
370
   -1
100
AcDbCircle
 10
266.62552797892
 20
143.1500000434002
 40
1.976969599519999
100
AcDbArc
 50
57.33286379640122
 51
90.05010863830083
  0
ARC
  5
160
100
AcDbEntity
  8
1粗实线-A (轮廓线)
  6
CONTINUOUS
 62
    7
370
   -1
100
AcDbCircle
 10
268.5555249495001
 20
144.6737362517
 40
0.54999999982
100
AcDbArc
 50
217.9681142783875
 51
230.793519522501
  0
ARC
  5
161
100
AcDbEntity
  8
1粗实线-A (轮廓线)
  6
CONTINUOUS
 62
    7
370
   -1
100
AcDbCircle
 10
268.05552494874
 20
146.34347108596
 40
0.50000000076
100
AcDbArc
 50
270
 51
0
  0
ARC
  5
162
100
AcDbEntity
  8
1粗实线-A (轮廓线)
  6
CONTINUOUS
 62
    7
370
   -1
100
AcDbCircle
 10
265.73762951342
 20
145.4500000027002
 40
0.29999999944
100
AcDbArc
 50
269.9998903795988
 51
22.74321522810913
  0
ARC
  5
163
100
AcDbEntity
  8
1粗实线-A (轮廓线)
  6
CONTINUOUS
 62
    7
370
   -1
100
AcDbCircle
 10
270.6455249503401
 20
128.92560613766
 40
6.620364163359999
100
AcDbArc
 50
179.9999999540974
 51
270.0000000020974
  0
ARC
  5
164
100
AcDbEntity
  8
1粗实线-A (轮廓线)
  6
CONTINUOUS
 62
    7
370
   -1
100
AcDbCircle
 10
270.6455330097601
 20
128.9256112405201
 40
5.40000815856
100
AcDbArc
 50
213.1143345996089
 51
268.7274003839033
  0
ARC
  5
165
100
AcDbEntity
  8
1粗实线-A (轮廓线)
  6
CONTINUOUS
 62
    7
370
   -1
100
AcDbCircle
 10
270.6455249503401
 20
128.92560613766
 40
5.400000000079999
100
AcDbArc
 50
211.4471449462958
 51
212.6091219123089
  0
ARC
  5
166
100
AcDbEntity
  8
1粗实线-A (轮廓线)
  6
CONTINUOUS
 62
    7
370
   -1
100
AcDbCircle
 10
270.6455249503401
 20
128.92560613766
 40
5.400000000079999
100
AcDbArc
 50
269.1942564572026
 51
271.421794594503
  0
ARC
  5
167
100
AcDbEntity
  8
1粗实线-A (轮廓线)
  6
CONTINUOUS
 62
    7
370
   -1
100
AcDbCircle
 10
270.6455249503401
 20
128.92560613766
 40
5.100000000639999
100
AcDbArc
 50
197.6665055288991
 51
210.6889036782031
  0
ARC
  5
168
100
AcDbEntity
  8
1粗实线-A (轮廓线)
  6
CONTINUOUS
 62
    7
370
   -1
100
AcDbCircle
 10
270.6455249503401
 20
128.92560613766
 40
4.550000000819999
100
AcDbArc
 50
211.7688781788944
 51
271.6874747217016
  0
ARC
  5
169
100
AcDbEntity
  8
1粗实线-A (轮廓线)
  6
CONTINUOUS
 62
    7
370
   -1
100
AcDbCircle
 10
271.17552494952
 20
130.7500000022002
 40
4.64999999894
100
AcDbArc
 50
112.6033114517938
 51
227.5040636005995
  0
ARC
  5
16A
100
AcDbEntity
  8
1粗实线-A (轮廓线)
  6
CONTINUOUS
 62
    7
370
   -1
100
AcDbCircle
 10
271.14552494856
 20
131.42560613892
 40
4.050000000059999
100
AcDbArc
 50
200.206563181996
 51
337.8083934337049
  0
ARC
  5
16B
100
AcDbEntity
  8
1粗实线-A (轮廓线)
  6
CONTINUOUS
 62
    7
370
   -1
100
AcDbCircle
 10
271.14552494856
 20
131.42560613892
 40
3.949999999399999
100
AcDbArc
 50
18.31065154649747
 51
28.70732125630404
  0
ARC
  5
16C
100
AcDbEntity
  8
1粗实线-A (轮廓线)
  6
CONTINUOUS
 62
    7
370
   -1
100
AcDbCircle
 10
271.14552494856
 20
131.42560613892
 40
3.750000000619999
100
AcDbArc
 50
81.36349329490608
 51
172.0571502641004
  0
ARC
  5
16D
100
AcDbEntity
  8
1粗实线-A (轮廓线)
  6
CONTINUOUS
 62
    7
370
   -1
100
AcDbCircle
 10
271.14552494856
 20
131.42560613892
 40
3.399999999579999
100
AcDbArc
 50
17.08258324339428
 51
45.14150327899895
  0
ARC
  5
16E
100
AcDbEntity
  8
1粗实线-A (轮廓线)
  6
CONTINUOUS
 62
    7
370
   -1
100
AcDbCircle
 10
271.14552494856
 20
131.42560613892
 40
3.399999999579999
100
AcDbArc
 50
193.8857733608015
 51
342.9174167565995
  0
ARC
  5
16F
100
AcDbEntity
  8
1粗实线-A (轮廓线)
  6
CONTINUOUS
 62
    7
370
   -1
100
AcDbCircle
 10
271.14552494856
 20
131.42560613892
 40
3.299999998919999
100
AcDbArc
 50
64.04491242749685
 51
180.1040005730978
  0
CIRCLE
  5
170
100
AcDbEntity
  8
1粗实线-A (轮廓线)
  6
CONTINUOUS
 62
    7
370
   -1
100
AcDbCircle
 10
271.14552487744
 20
131.42560775944
 40
2.249998415919999
  0
ARC
  5
171
100
AcDbEntity
  8
1粗实线-A (轮廓线)
  6
CONTINUOUS
 62
    7
370
   -1
100
AcDbCircle
 10
271.14552561912
 20
131.4256060754201
 40
1.7500036882
100
AcDbArc
 50
273.2758000534032
 51
293.578101832899
  0
ARC
  5
172
100
AcDbEntity
  8
1粗实线-A (轮廓线)
  6
CONTINUOUS
 62
    7
370
   -1
100
AcDbCircle
 10
271.14552487744
 20
131.42560775944
 40
1.750001930519999
100
AcDbArc
 50
66.42184651230124
 51
86.72417228050573
  0
CIRCLE
  5
173
100
AcDbEntity
  8
1粗实线-A (轮廓线)
  6
CONTINUOUS
 62
    7
370
   -1
100
AcDbCircle
 10
271.5455249486599
 20
131.42560613892
 40
0.62499999968
  0
ARC
  5
174
100
AcDbEntity
  8
1粗实线-A (轮廓线)
  6
CONTINUOUS
 62
    7
370
   -1
100
AcDbCircle
 10
271.8588101768
 20
136.12174542328
 40
0.9999999989799999
100
AcDbArc
 50
261.3634932951953
 51
324.4508442000999
  0
ARC
  5
175
100
AcDbEntity
  8
1粗实线-A (轮廓线)
  6
CONTINUOUS
 62
    7
370
   -1
100
AcDbCircle
 10
269.52197220888
 20
145.4411636983
 40
1.797290477039999
100
AcDbArc
 50
198.7501936421031
 51
200.0112147678088
  0
ARC
  5
176
100
AcDbEntity
  8
1粗实线-A (轮廓线)
  6
CONTINUOUS
 62
    7
370
   -1
100
AcDbCircle
 10
269.28959954942
 20
145.3425685284601
 40
1.544670753679999
100
AcDbArc
 50
207.1493555057923
 51
207.4911493409063
  0
ARC
  5
177
100
AcDbEntity
  8
1粗实线-A (轮廓线)
  6
CONTINUOUS
 62
    7
370
   -1
100
AcDbCircle
 10
269.1584926716801
 20
145.26836635784
 40
1.394903171579999
100
AcDbArc
 50
227.0387162446953
 51
232.5665289256027
  0
ARC
  5
178
100
AcDbEntity
  8
1粗实线-A (轮廓线)
  6
CONTINUOUS
 62
    7
370
   -1
100
AcDbCircle
 10
269.1453731246399
 20
145.25228415734
 40
1.374255636039999
100
AcDbArc
 50
216.8497277376075
 51
221.8269195934057
  0
ARC
  5
179
100
AcDbEntity
  8
1粗实线-A (轮廓线)
  6
CONTINUOUS
 62
    7
370
   -1
100
AcDbCircle
 10
269.49028330858
 20
144.04060484334
 40
1.023030399959999
100
AcDbArc
 50
197.2696006762961
 51
260.2020546412975
  0
ARC
  5
17A
100
AcDbEntity
  8
1粗实线-A (轮廓线)
  6
CONTINUOUS
 62
    7
370
   -1
100
AcDbCircle
 10
269.1755215124001
 20
142.2179387426801
 40
0.8266146205799998
100
AcDbArc
 50
0.0236789735028666
 51
80.20205434920634
  0
ARC
  5
17B
100
AcDbEntity
  8
1粗实线-A (轮廓线)
  6
CONTINUOUS
 62
    7
370
   -1
100
AcDbCircle
 10
270.2474666634
 20
144.17373625094
 40
0.50000000076
100
AcDbArc
 50
89.99254856410106
 51
180
  0
ARC
  5
17C
100
AcDbEntity
  8
1粗实线-A (轮廓线)
  6
CONTINUOUS
 62
    7
370
   -1
100
AcDbCircle
 10
270.27916361804
 20
144.17373625094
 40
0.50000000076
100
AcDbArc
 50
89.99999999959614
 51
225.8205294006983
  0
ARC
  5
17D
100
AcDbEntity
  8
1粗实线-A (轮廓线)
  6
CONTINUOUS
 62
    7
370
   -1
100
AcDbCircle
 10
272.04552494942
 20
144.4737362503802
 40
0.19999999878
100
AcDbArc
 50
0
 51
90
  0
ARC
  5
17E
100
AcDbEntity
  8
1粗实线-A (轮廓线)
  6
CONTINUOUS
 62
    7
370
   -1
100
AcDbCircle
 10
273.72095660236
 20
151.9756061386602
 40
28.6000000008
100
AcDbArc
 50
264.0968221328955
 51
270
  0
ARC
  5
17F
100
AcDbEntity
  8
1粗实线-A (轮廓线)
  6
CONTINUOUS
 62
    7
370
   -1
100
AcDbCircle
 10
270.6455249503401
 20
161.9256061370201
 40
5.449999999139999
100
AcDbArc
 50
157.9143807323019
 51
180
  0
ARC
  5
180
100
AcDbEntity
  8
1粗实线-A (轮廓线)
  6
CONTINUOUS
 62
    7
370
   -1
100
AcDbCircle
 10
270.6455249503401
 20
161.9256061370201
 40
4.899999999319999
100
AcDbArc
 50
90
 51
145.5321217027956
  0
ARC
  5
181
100
AcDbEntity
  8
1粗实线-A (轮廓线)
  6
CONTINUOUS
 62
    7
370
   -1
100
AcDbCircle
 10
270.6455249503401
 20
161.9256061370201
 40
3.90000000034
100
AcDbArc
 50
89.99999990509428
 51
137.8884754168932
  0
ARC
  5
182
100
AcDbEntity
  8
1粗实线-A (轮廓线)
  6
CONTINUOUS
 62
    7
370
   -1
100
AcDbCircle
 10
270.6455249503401
 20
161.9256061370201
 40
3.90000000034
100
AcDbArc
 50
153.0400862648973
 51
180.000000021997
  0
ARC
  5
183
100
AcDbEntity
  8
1粗实线-A (轮廓线)
  6
CONTINUOUS
 62
    7
370
   -1
100
AcDbCircle
 10
269.66979512634
 20
147.2576904843402
 40
3.4743477376
100
AcDbArc
 50
266.3109712465036
 51
267.0388699994035
  0
ARC
  5
184
100
AcDbEntity
  8
1粗实线-A (轮廓线)
  6
CONTINUOUS
 62
    7
370
   -1
100
AcDbCircle
 10
270.6455249503401
 20
161.9256061370201
 40
3.35000000052
100
AcDbArc
 50
107.3679799118953
 51
149.3206742119905
  0
ARC
  5
185
100
AcDbEntity
  8
1粗实线-A (轮廓线)
  6
CONTINUOUS
 62
    7
370
   -1
100
AcDbCircle
 10
270.6455249503401
 20
161.9256061370201
 40
3.149999999199999
100
AcDbArc
 50
89.99999998780621
 51
108.509404981505
  0
ARC
  5
186
100
AcDbEntity
  8
1粗实线-A (轮廓线)
  6
CONTINUOUS
 62
    7
370
   -1
100
AcDbCircle
 10
270.6455249503401
 20
161.9256061370201
 40
3.149999999199999
100
AcDbArc
 50
153.4800845340969
 51
180
  0
ARC
  5
187
100
AcDbEntity
  8
1粗实线-A (轮廓线)
  6
CONTINUOUS
 62
    7
370
   -1
100
AcDbCircle
 10
266.02864077036
 20
165.0948932020402
 40
0.69999999954
100
AcDbArc
 50
278.8515467273997
 51
325.5321216999084
  0
ARC
  5
188
100
AcDbEntity
  8
1粗实线-A (轮廓线)
  6
CONTINUOUS
 62
    7
370
   -1
100
AcDbCircle
 10
266.24406555414
 20
163.7115667180001
 40
0.69999999954
100
AcDbArc
 50
98.85154676620127
 51
157.9143807331968
  0
ARC
  5
189
100
AcDbEntity
  8
1粗实线-A (轮廓线)
  6
CONTINUOUS
 62
    7
370
   -1
100
AcDbCircle
 10
265.8955249482001
 20
158.6953064330402
 40
0.69999999954
100
AcDbArc
 50
180
 51
232.6168015821
  0
ARC
  5
18A
100
AcDbEntity
  8
1粗实线-A (轮廓线)
  6
CONTINUOUS
 62
    7
370
   -1
100
AcDbCircle
 10
265.0455249489401
 20
157.5828766614601
 40
0.69999999954
100
AcDbArc
 50
0
 51
52.61680158200235
  0
ARC
  5
18B
100
AcDbEntity
  8
1粗实线-A (轮廓线)
  6
CONTINUOUS
 62
    7
370
   -1
100
AcDbCircle
 10
265.0455249489401
 20
152.6224263080601
 40
0.69999999954
100
AcDbArc
 50
307.3831984179
 51
0
  0
ARC
  5
18C
100
AcDbEntity
  8
1粗实线-A (轮廓线)
  6
CONTINUOUS
 62
    7
370
   -1
100
AcDbCircle
 10
265.8955249482001
 20
151.50999653394
 40
0.69999999954
100
AcDbArc
 50
127.3831984178999
 51
179.9999999995961
  0
ARC
  5
18D
100
AcDbEntity
  8
1粗实线-A (轮廓线)
  6
CONTINUOUS
 62
    7
370
   -1
100
AcDbCircle
 10
268.3055249491201
 20
159.67560613868
 40
0.25000000038
100
AcDbArc
 50
269.9999991475942
 51
0
  0
ARC
  5
18E
100
AcDbEntity
  8
1粗实线-A (轮廓线)
  6
CONTINUOUS
 62
    7
370
   -1
100
AcDbCircle
 10
268.3055249491201
 20
159.1756061379201
 40
0.25000000038
100
AcDbArc
 50
90
 51
179.9999999868943
  0
ARC
  5
18F
100
AcDbEntity
  8
1粗实线-A (轮廓线)
  6
CONTINUOUS
 62
    7
370
   -1
100
AcDbCircle
 10
267.80552494836
 20
156.53868522686
 40
0.25000000038
100
AcDbArc
 50
306.8698976461957
 51
0
  0
ARC
  5
190
100
AcDbEntity
  8
1粗实线-A (轮廓线)
  6
CONTINUOUS
 62
    7
370
   -1
100
AcDbCircle
 10
268.1055249503399
 20
156.13868522676
 40
0.25000000038
100
AcDbArc
 50
126.8698976454935
 51
180
  0
ARC
  5
191
100
AcDbEntity
  8
1粗实线-A (轮廓线)
  6
CONTINUOUS
 62
    7
370
   -1
100
AcDbCircle
 10
267.6032756221
 20
163.4437362503601
 40
0.25000000038
100
AcDbArc
 50
333.4800845362001
 51
89.99992352769669
  0
ARC
  5
192
100
AcDbEntity
  8
1粗实线-A (轮廓线)
  6
CONTINUOUS
 62
    7
370
   -1
100
AcDbCircle
 10
279.14552494802
 20
131.42560613892
 40
3.949999999399999
100
AcDbArc
 50
95.74352294440048
 51
161.6893484534964
  0
ARC
  5
193
100
AcDbEntity
  8
1粗实线-A (轮廓线)
  6
CONTINUOUS
 62
    7
370
   -1
100
AcDbCircle
 10
279.14552494802
 20
131.42560613892
 40
3.949999999399999
100
AcDbArc
 50
198.3106515465036
 51
341.6893484535025
  0
ARC
  5
194
100
AcDbEntity
  8
1粗实线-A (轮廓线)
  6
CONTINUOUS
 62
    7
370
   -1
100
AcDbCircle
 10
279.14552494802
 20
131.42560613892
 40
3.949999999399999
100
AcDbArc
 50
18.31065154649747
 51
44.25647705569086
  0
ARC
  5
195
100
AcDbEntity
  8
1粗实线-A (轮廓线)
  6
CONTINUOUS
 62
    7
370
   -1
100
AcDbCircle
 10
279.14552494802
 20
131.42560613892
 40
3.399999999579999
100
AcDbArc
 50
197.0825832433942
 51
342.9174167565995
  0
ARC
  5
196
100
AcDbEntity
  8
1粗实线-A (轮廓线)
  6
CONTINUOUS
 62
    7
370
   -1
100
AcDbCircle
 10
279.14552494802
 20
131.42560613892
 40
3.399999999579999
100
AcDbArc
 50
79.30934092159673
 51
162.9174167565995
  0
ARC
  5
197
100
AcDbEntity
  8
1粗实线-A (轮廓线)
  6
CONTINUOUS
 62
    7
370
   -1
100
AcDbCircle
 10
279.14552494802
 20
131.42560613892
 40
3.399999999579999
100
AcDbArc
 50
17.08258324339428
 51
60.69065907839917
  0
CIRCLE
  5
198
100
AcDbEntity
  8
1粗实线-A (轮廓线)
  6
CONTINUOUS
 62
    7
370
   -1
100
AcDbCircle
 10
279.14552555254
 20
131.4256059027
 40
2.249999764659999
  0
ARC
  5
199
100
AcDbEntity
  8
1粗实线-A (轮廓线)
  6
CONTINUOUS
 62
    7
370
   -1
100
AcDbCircle
 10
279.14552555254
 20
131.4256059027
 40
1.750003408799999
100
AcDbArc
 50
260.1291097792934
 51
279.8708501630945
  0
ARC
  5
19A
100
AcDbEntity
  8
1粗实线-A (轮廓线)
  6
CONTINUOUS
 62
    7
370
   -1
100
AcDbCircle
 10
279.14552434604
 20
131.4256063726
 40
1.750003408799999
100
AcDbArc
 50
80.12910977929349
 51
99.87085016309445
  0
ARC
  5
19B
100
AcDbEntity
  8
1粗实线-A (轮廓线)
  6
CONTINUOUS
 62
    7
370
   -1
100
AcDbCircle
 10
278.65015080796
 20
136.3507563343202
 40
0.9999999989799999
100
AcDbArc
 50
275.7435229440991
 51
340.0000000000931
  0
ARC
  5
19C
100
AcDbEntity
  8
1粗实线-A (轮廓线)
  6
CONTINUOUS
 62
    7
370
   -1
100
AcDbCircle
 10
275.4870946779001
 20
133.8032672357601
 40
0.9999999989799999
100
AcDbArc
 50
144.4508442007905
 51
208.707321256094
  0
CIRCLE
  5
19D
100
AcDbEntity
  8
1粗实线-A (轮廓线)
  6
CONTINUOUS
 62
    7
370
   -1
100
AcDbCircle
 10
279.14552494802
 20
131.42560613892
 40
0.62499999968
  0
ARC
  5
19E
100
AcDbEntity
  8
1粗实线-A (轮廓线)
  6
CONTINUOUS
 62
    7
370
   -1
100
AcDbCircle
 10
277.3955249479
 20
142.50000000228
 40
0.50000000076
100
AcDbArc
 50
180
 51
270
  0
ARC
  5
19F
100
AcDbEntity
  8
1粗实线-A (轮廓线)
  6
CONTINUOUS
 62
    7
370
   -1
100
AcDbCircle
 10
276.5455249486399
 20
143.55000000032
 40
0.35000000104
100
AcDbArc
 50
359.9999996948947
 51
90
  0
ARC
  5
1A0
100
AcDbEntity
  8
1粗实线-A (轮廓线)
  6
CONTINUOUS
 62
    7
370
   -1
100
AcDbCircle
 10
276.34552494986
 20
144.4737362503802
 40
0.19999999878
100
AcDbArc
 50
0
 51
89.99999999929651
  0
ARC
  5
1A1
100
AcDbEntity
  8
1粗实线-A (轮廓线)
  6
CONTINUOUS
 62
    7
370
   -1
100
AcDbCircle
 10
275.6455249503201
 20
144.4737362503802
 40
0.19999999878
100
AcDbArc
 50
90
 51
180
  0
ARC
  5
1A2
100
AcDbEntity
  8
1粗实线-A (轮廓线)
  6
CONTINUOUS
 62
    7
370
   -1
100
AcDbCircle
 10
283.6734386049
 20
134.9536532484201
 40
0.9999999989799999
100
AcDbArc
 50
314.5419733820912
 51
19.99651956870293
  0
ARC
  5
1A3
100
AcDbEntity
  8
1粗实线-A (轮廓线)
  6
CONTINUOUS
 62
    7
370
   -1
100
AcDbCircle
 10
282.69082907914
 20
134.88006971766
 40
0.9999999989799999
100
AcDbArc
 50
159.9999999998994
 51
224.2564770555067
  0
ARC
  5
1A4
100
AcDbEntity
  8
1粗实线-A (轮廓线)
  6
CONTINUOUS
 62
    7
370
   -1
100
AcDbCircle
 10
279.72729985762
 20
153.9178577558
 40
14.07254689422
100
AcDbArc
 50
225.8813130276979
 51
230.7586104178021
  0
ARC
  5
1A5
100
AcDbEntity
  8
1粗实线-A (轮廓线)
  6
CONTINUOUS
 62
    7
370
   -1
100
AcDbCircle
 10
278.7186576864401
 20
152.8680321643201
 40
12.46672386254
100
AcDbArc
 50
224.1871885359955
 51
224.8636120799957
  0
ARC
  5
1A6
100
AcDbEntity
  8
1粗实线-A (轮廓线)
  6
CONTINUOUS
 62
    7
370
   -1
100
AcDbCircle
 10
276.58986999076
 20
151.02194246814
 40
9.1494449726
100
AcDbArc
 50
205.8441656960913
 51
208.583144327406
  0
ARC
  5
1A7
100
AcDbEntity
  8
1粗实线-A (轮廓线)
  6
CONTINUOUS
 62
    7
370
   -1
100
AcDbCircle
 10
276.1709544379401
 20
150.82423191868
 40
8.686242386179998
100
AcDbArc
 50
198.3214072392965
 51
205.8750331462956
  0
ARC
  5
1A8
100
AcDbEntity
  8
1粗实线-A (轮廓线)
  6
CONTINUOUS
 62
    7
370
   -1
100
AcDbCircle
 10
275.9973983969401
 20
150.7623448136002
 40
8.502031230599998
100
AcDbArc
 50
196.5274217748012
 51
198.2931479647021
  0
CIRCLE
  5
1A9
100
AcDbEntity
  8
1粗实线-A (轮廓线)
  6
CONTINUOUS
 62
    7
370
   -1
100
AcDbCircle
 10
291.0655249484601
 20
127.2337362524202
 40
0.75000000114
  0
ARC
  5
1AA
100
AcDbEntity
  8
1粗实线-A (轮廓线)
  6
CONTINUOUS
 62
    7
370
   -1
100
AcDbCircle
 10
295.6155249492799
 20
123.6256910453601
 40
0.10000000066
100
AcDbArc
 50
180.0000000001954
 51
269.6756825350957
  0
ARC
  5
1AB
100
AcDbEntity
  8
1粗实线-A (轮廓线)
  6
CONTINUOUS
 62
    7
370
   -1
100
AcDbCircle
 10
300.16707007782
 20
126.16053296576
 40
0.10000000066
100
AcDbArc
 50
328.5533281155991
 51
68.16074040650327
  0
ARC
  5
1AC
100
AcDbEntity
  8
1粗实线-A (轮廓线)
  6
CONTINUOUS
 62
    7
370
   -1
100
AcDbCircle
 10
287.14552495002
 20
131.42560613892
 40
3.949999999399999
100
AcDbArc
 50
18.31065154649747
 51
83.0426500211057
  0
ARC
  5
1AD
100
AcDbEntity
  8
1粗实线-A (轮廓线)
  6
CONTINUOUS
 62
    7
370
   -1
100
AcDbCircle
 10
287.14552495002
 20
131.42560613892
 40
3.949999999399999
100
AcDbArc
 50
134.5419733824044
 51
161.6893484534964
  0
ARC
  5
1AE
100
AcDbEntity
  8
1粗实线-A (轮廓线)
  6
CONTINUOUS
 62
    7
370
   -1
100
AcDbCircle
 10
287.14552495002
 20
131.42560613892
 40
3.949999999399999
100
AcDbArc
 50
198.3106515465036
 51
341.6893484535025
  0
ARC
  5
1AF
100
AcDbEntity
  8
1粗实线-A (轮廓线)
  6
CONTINUOUS
 62
    7
370
   -1
100
AcDbCircle
 10
287.14552495002
 20
131.42560613892
 40
3.399999999579999
100
AcDbArc
 50
17.08258324339428
 51
99.08207007719525
  0
ARC
  5
1B0
100
AcDbEntity
  8
1粗实线-A (轮廓线)
  6
CONTINUOUS
 62
    7
370
   -1
100
AcDbCircle
 10
287.14552495002
 20
131.42560613892
 40
3.399999999579999
100
AcDbArc
 50
117.7081235086068
 51
162.9174167565995
  0
ARC
  5
1B1
100
AcDbEntity
  8
1粗实线-A (轮廓线)
  6
CONTINUOUS
 62
    7
370
   -1
100
AcDbCircle
 10
287.14552495002
 20
131.42560613892
 40
3.399999999579999
100
AcDbArc
 50
197.0825832433942
 51
342.9174167565995
  0
CIRCLE
  5
1B2
100
AcDbEntity
  8
1粗实线-A (轮廓线)
  6
CONTINUOUS
 62
    7
370
   -1
100
AcDbCircle
 10
287.1455243455
 20
131.4256063726
 40
2.249999764659999
  0
ARC
  5
1B3
100
AcDbEntity
  8
1粗实线-A (轮廓线)
  6
CONTINUOUS
 62
    7
370
   -1
100
AcDbCircle
 10
287.1455243455
 20
131.4256063726
 40
1.750003408799999
100
AcDbArc
 50
80.12910977929349
 51
99.87085016309445
  0
ARC
  5
1B4
100
AcDbEntity
  8
1粗实线-A (轮廓线)
  6
CONTINUOUS
 62
    7
370
   -1
100
AcDbCircle
 10
287.145525552
 20
131.4256059027
 40
1.750003408799999
100
AcDbArc
 50
260.1291097792934
 51
279.8708501630945
  0
ARC
  5
1B5
100
AcDbEntity
  8
1粗实线-A (轮廓线)
  6
CONTINUOUS
 62
    7
370
   -1
100
AcDbCircle
 10
287.7451207993399
 20
136.33915727954
 40
0.9999999989799999
100
AcDbArc
 50
200.0000000001005
 51
263.042650020305
  0
CIRCLE
  5
1B6
100
AcDbEntity
  8
1粗实线-A (轮廓线)
  6
CONTINUOUS
 62
    7
370
   -1
100
AcDbCircle
 10
287.14552495002
 20
131.42560613892
 40
0.62499999968
  0
ARC
  5
1B7
100
AcDbEntity
  8
1粗实线-A (轮廓线)
  6
CONTINUOUS
 62
    7
370
   -1
100
AcDbCircle
 10
290.8039552201401
 20
133.8032672357601
 40
0.9999999989799999
100
AcDbArc
 50
331.2926787438067
 51
35.54915579920949
  0
ARC
  5
1B8
100
AcDbEntity
  8
1粗实线-A (轮廓线)
  6
CONTINUOUS
 62
    7
370
   -1
100
AcDbCircle
 10
294.30250839066
 20
136.30329238048
 40
0.9999999989799999
100
AcDbArc
 50
215.5491557986907
 51
279.8056328543936
  0
ARC
  5
1B9
100
AcDbEntity
  8
1粗实线-A (轮廓线)
  6
CONTINUOUS
 62
    7
370
   -1
100
AcDbCircle
 10
293.3601254494199
 20
140.17519113908
 40
0.9000000008599998
100
AcDbArc
 50
45.65365009130631
 51
225.6536500928909
  0
ARC
  5
1BA
100
AcDbEntity
  8
1粗实线-A (轮廓线)
  6
CONTINUOUS
 62
    7
370
   -1
100
AcDbCircle
 10
292.6455249482201
 20
142.50000000228
 40
0.50000000076
100
AcDbArc
 50
270
 51
0
  0
ARC
  5
1BB
100
AcDbEntity
  8
1粗实线-A (轮廓线)
  6
CONTINUOUS
 62
    7
370
   -1
100
AcDbCircle
 10
293.4955249500201
 20
143.55000025178
 40
0.35000000104
100
AcDbArc
 50
90
 51
179.9999980675971
  0
ARC
  5
1BC
100
AcDbEntity
  8
1粗实线-A (轮廓线)
  6
CONTINUOUS
 62
    7
370
   -1
100
AcDbCircle
 10
292.5693813108201
 20
151.99394014568
 40
28.61836894298
100
AcDbArc
 50
270.002357151803
 51
275.9017403225957
  0
ARC
  5
1BD
100
AcDbEntity
  8
1粗实线-A (轮廓线)
  6
CONTINUOUS
 62
    7
370
   -1
100
AcDbCircle
 10
288.5465936210801
 20
150.7941089385401
 40
11.2741068142
100
AcDbArc
 50
321.546066260992
 51
322.8374908820939
  0
ARC
  5
1BE
100
AcDbEntity
  8
1粗实线-A (轮廓线)
  6
CONTINUOUS
 62
    7
370
   -1
100
AcDbCircle
 10
288.44250142896
 20
150.85584501522
 40
11.2438317414
100
AcDbArc
 50
322.9016633915041
 51
324.521719326611
  0
ARC
  5
1BF
100
AcDbEntity
  8
1粗实线-A (轮廓线)
  6
CONTINUOUS
 62
    7
370
   -1
100
AcDbCircle
 10
288.45364058118
 20
149.9690643961002
 40
11.0918843694
100
AcDbArc
 50
0.0006322383010802178
 51
0.6450029562996593
  0
ARC
  5
1C0
100
AcDbEntity
  8
1粗实线-A (轮廓线)
  6
CONTINUOUS
 62
    7
370
   -1
100
AcDbCircle
 10
288.73620737952
 20
150.6492997844201
 40
11.03552284128
100
AcDbArc
 50
322.8419592142061
 51
323.4259591479109
  0
ARC
  5
1C1
100
AcDbEntity
  8
1粗实线-A (轮廓线)
  6
CONTINUOUS
 62
    7
370
   -1
100
AcDbCircle
 10
290.58692126762
 20
149.69799855012
 40
9.93466284082
100
AcDbArc
 50
332.0040526712957
 51
332.2073622418038
  0
ARC
  5
1C2
100
AcDbEntity
  8
1粗实线-A (轮廓线)
  6
CONTINUOUS
 62
    7
370
   -1
100
AcDbCircle
 10
289.71544373702
 20
150.0054694033
 40
9.862756827659998
100
AcDbArc
 50
329.1021483391039
 51
333.5266990742049
  0
ARC
  5
1C3
100
AcDbEntity
  8
1粗实线-A (轮廓线)
  6
CONTINUOUS
 62
    7
370
   -1
100
AcDbCircle
 10
290.09812013956
 20
149.81909864574
 40
9.43712729284
100
AcDbArc
 50
333.5038621733922
 51
341.3019396189905
  0
ARC
  5
1C4
100
AcDbEntity
  8
1粗实线-A (轮廓线)
  6
CONTINUOUS
 62
    7
370
   -1
100
AcDbCircle
 10
289.86103029624
 20
149.9412675301801
 40
9.155373360539999
100
AcDbArc
 50
331.2205956263901
 51
333.9136789268888
  0
ARC
  5
1C5
100
AcDbEntity
  8
1粗实线-A (轮廓线)
  6
CONTINUOUS
 62
    7
370
   -1
100
AcDbCircle
 10
294.7555249497
 20
131.2614715497401
 40
5.100000000639999
100
AcDbArc
 50
330.1710645177959
 51
74.18399516249913
  0
ARC
  5
1C6
100
AcDbEntity
  8
1粗实线-A (轮廓线)
  6
CONTINUOUS
 62
    7
370
   -1
100
AcDbCircle
 10
295.14552494948
 20
131.42560613892
 40
3.949999999399999
100
AcDbArc
 50
151.2926787436959
 51
161.6893484534964
  0
ARC
  5
1C7
100
AcDbEntity
  8
1粗实线-A (轮廓线)
  6
CONTINUOUS
 62
    7
370
   -1
100
AcDbCircle
 10
295.14552494948
 20
131.42560613892
 40
3.949999999399999
100
AcDbArc
 50
198.3106515465036
 51
344.1595056382962
  0
ARC
  5
1C8
100
AcDbEntity
  8
1粗实线-A (轮廓线)
  6
CONTINUOUS
 62
    7
370
   -1
100
AcDbCircle
 10
295.14552494948
 20
131.42560613892
 40
3.949999999399999
100
AcDbArc
 50
15.8404943617038
 51
99.80563285509507
  0
ARC
  5
1C9
100
AcDbEntity
  8
1粗实线-A (轮廓线)
  6
CONTINUOUS
 62
    7
370
   -1
100
AcDbCircle
 10
295.14552494948
 20
131.42560613892
 40
3.346495250099999
100
AcDbArc
 50
193.7925516023024
 51
350.4379516152973
  0
ARC
  5
1CA
100
AcDbEntity
  8
1粗实线-A (轮廓线)
  6
CONTINUOUS
 62
    7
370
   -1
100
AcDbCircle
 10
295.14552494948
 20
131.42560613892
 40
3.346495250099999
100
AcDbArc
 50
9.562048384702564
 51
116.0896182152049
  0
ARC
  5
1CB
100
AcDbEntity
  8
1粗实线-A (轮廓线)
  6
CONTINUOUS
 62
    7
370
   -1
100
AcDbCircle
 10
295.14552494948
 20
131.42560613892
 40
3.346495250099999
100
AcDbArc
 50
135.0086933835989
 51
166.2074483976975
  0
CIRCLE
  5
1CC
100
AcDbEntity
  8
1粗实线-A (轮廓线)
  6
CONTINUOUS
 62
    7
370
   -1
100
AcDbCircle
 10
295.14552481232
 20
131.42560399262
 40
2.24999786474
  0
ARC
  5
1CD
100
AcDbEntity
  8
1粗实线-A (轮廓线)
  6
CONTINUOUS
 62
    7
370
   -1
100
AcDbCircle
 10
295.14552427892
 20
131.42560619988
 40
1.7500036882
100
AcDbArc
 50
93.27580005340315
 51
113.5781018328989
  0
ARC
  5
1CE
100
AcDbEntity
  8
1粗实线-A (轮廓线)
  6
CONTINUOUS
 62
    7
370
   -1
100
AcDbCircle
 10
295.14552481232
 20
131.42560399262
 40
1.750001242179999
100
AcDbArc
 50
246.4218441407997
 51
266.724177846594
  0
CIRCLE
  5
1CF
100
AcDbEntity
  8
1粗实线-A (轮廓线)
  6
CONTINUOUS
 62
    7
370
   -1
100
AcDbCircle
 10
294.7455249493801
 20
131.42560613892
 40
0.62499999968
  0
ARC
  5
1D0
100
AcDbEntity
  8
1粗实线-A (轮廓线)
  6
CONTINUOUS
 62
    7
370
   -1
100
AcDbCircle
 10
295.6455249502401
 20
128.92560613766
 40
6.620364163359999
100
AcDbArc
 50
270.0000000239967
 51
359.9999999977983
  0
ARC
  5
1D1
100
AcDbEntity
  8
1粗实线-A (轮廓线)
  6
CONTINUOUS
 62
    7
370
   -1
100
AcDbCircle
 10
295.64552418824
 20
128.92558751184
 40
5.39998450862
100
AcDbArc
 50
268.5831194163986
 51
328.5528550555988
  0
ARC
  5
1D2
100
AcDbEntity
  8
1粗实线-A (轮廓线)
  6
CONTINUOUS
 62
    7
370
   -1
100
AcDbCircle
 10
295.6455249502401
 20
128.92560613766
 40
5.100000000639999
100
AcDbArc
 50
329.3110963217968
 51
0
  0
ARC
  5
1D3
100
AcDbEntity
  8
1粗实线-A (轮廓线)
  6
CONTINUOUS
 62
    7
370
   -1
100
AcDbCircle
 10
295.64951218128
 20
128.9240081906402
 40
4.550000000819999
100
AcDbArc
 50
268.3125255828061
 51
328.231121821205
  0
ARC
  5
1D4
100
AcDbEntity
  8
1粗实线-A (轮廓线)
  6
CONTINUOUS
 62
    7
370
   -1
100
AcDbCircle
 10
295.15092644998
 20
138.4247911372202
 40
0.9000000008599998
100
AcDbArc
 50
225.6536500921078
 51
45.65365009279876
  0
ARC
  5
1D5
100
AcDbEntity
  8
1粗实线-A (轮廓线)
  6
CONTINUOUS
 62
    7
370
   -1
100
AcDbCircle
 10
298.3490501654801
 20
146.1437362504802
 40
0.35000000104
100
AcDbArc
 50
154.8402809420003
 51
237.9615927288922
  0
ARC
  5
1D6
100
AcDbEntity
  8
1粗实线-A (轮廓线)
  6
CONTINUOUS
 62
    7
370
   -1
100
AcDbCircle
 10
296.04552495034
 20
144.4737362503802
 40
0.19999999878
100
AcDbArc
 50
90.00000000070349
 51
180
  0
ARC
  5
1D7
100
AcDbEntity
  8
1粗实线-A (轮廓线)
  6
CONTINUOUS
 62
    7
370
   -1
100
AcDbCircle
 10
299.89552494908
 20
133.20253824164
 40
2.0000000005
100
AcDbArc
 50
268.8443852383054
 51
270
  0
CIRCLE
  5
1D8
100
AcDbEntity
  8
1粗实线-A (轮廓线)
  6
CONTINUOUS
 62
    7
370
   -1
100
AcDbCircle
 10
300.655524948
 20
129.7637362521
 40
0.4499999991600001
  0
ARC
  5
1D9
100
AcDbEntity
  8
1粗实线-A (轮廓线)
  6
CONTINUOUS
 62
    7
370
   -1
100
AcDbCircle
 10
300.9174968396001
 20
130.1025382415002
 40
0.19999999878
100
AcDbArc
 50
90
 51
149.3008065707083
  0
ARC
  5
1DA
100
AcDbEntity
  8
1粗实线-A (轮廓线)
  6
CONTINUOUS
 62
    7
370
   -1
100
AcDbCircle
 10
302.8502344676401
 20
141.19714970984
 40
6.0547095187
100
AcDbArc
 50
154.7185126149052
 51
180.0000000007947
  0
ARC
  5
1DB
100
AcDbEntity
  8
1粗实线-A (轮廓线)
  6
CONTINUOUS
 62
    7
370
   -1
100
AcDbCircle
 10
299.89552494908
 20
142.30253824328
 40
2.0000000005
100
AcDbArc
 50
90
 51
92.17915623730175
  0
ARC
  5
1DC
100
AcDbEntity
  8
1粗实线-A (轮廓线)
  6
CONTINUOUS
 62
    7
370
   -1
100
AcDbCircle
 10
299.89552494908
 20
142.30253824328
 40
1.976969599519999
100
AcDbArc
 50
92.79735365009434
 51
180.0000000018955
  0
ARC
  5
1DD
100
AcDbEntity
  8
1粗实线-A (轮廓线)
  6
CONTINUOUS
 62
    7
370
   -1
100
AcDbCircle
 10
299.67945862226
 20
145.95253824324
 40
0.69999999954
100
AcDbArc
 50
270.2052100388032
 51
337.7667125821
  0
ARC
  5
1DE
100
AcDbEntity
  8
1粗实线-A (轮廓线)
  6
CONTINUOUS
 62
    7
370
   -1
100
AcDbCircle
 10
299.8009947037999
 20
144.8007504096601
 40
0.50000000076
100
AcDbArc
 50
152.1179483896945
 51
272.1183262790041
  0
ARC
  5
1DF
100
AcDbEntity
  8
1粗实线-A (轮廓线)
  6
CONTINUOUS
 62
    7
370
   -1
100
AcDbCircle
 10
299.68515462306
 20
144.9025382426602
 40
0.35000000104
100
AcDbArc
 50
90.5220165311992
 51
152.2073622447059
  0
ARC
  5
1E0
100
AcDbEntity
  8
1粗实线-A (轮廓线)
  6
CONTINUOUS
 62
    7
370
   -1
100
AcDbCircle
 10
295.6455249502401
 20
161.9256061370201
 40
5.449999999139999
100
AcDbArc
 50
0
 51
22.08561926769811
  0
ARC
  5
1E1
100
AcDbEntity
  8
1粗实线-A (轮廓线)
  6
CONTINUOUS
 62
    7
370
   -1
100
AcDbCircle
 10
295.6455249502401
 20
161.9256061370201
 40
4.899999999319999
100
AcDbArc
 50
34.46787829709765
 51
90
  0
ARC
  5
1E2
100
AcDbEntity
  8
1粗实线-A (轮廓线)
  6
CONTINUOUS
 62
    7
370
   -1
100
AcDbCircle
 10
295.6455249502401
 20
161.9256061370201
 40
3.90000000034
100
AcDbArc
 50
42.1115130828916
 51
90.00000011950173
  0
ARC
  5
1E3
100
AcDbEntity
  8
1粗实线-A (轮廓线)
  6
CONTINUOUS
 62
    7
370
   -1
100
AcDbCircle
 10
295.6455249502401
 20
161.9256061370201
 40
3.90000000034
100
AcDbArc
 50
0
 51
26.95985478360851
  0
ARC
  5
1E4
100
AcDbEntity
  8
1粗实线-A (轮廓线)
  6
CONTINUOUS
 62
    7
370
   -1
100
AcDbCircle
 10
295.6455249502401
 20
161.9256061370201
 40
3.35000000052
100
AcDbArc
 50
30.67932578800942
 51
72.63202008810465
  0
ARC
  5
1E5
100
AcDbEntity
  8
1粗实线-A (轮廓线)
  6
CONTINUOUS
 62
    7
370
   -1
100
AcDbCircle
 10
295.6455249502401
 20
161.9256061370201
 40
3.149999999199999
100
AcDbArc
 50
71.49059501849499
 51
90.00000002390553
  0
ARC
  5
1E6
100
AcDbEntity
  8
1粗实线-A (轮廓线)
  6
CONTINUOUS
 62
    7
370
   -1
100
AcDbCircle
 10
295.6455249502401
 20
161.9256061370201
 40
3.149999999199999
100
AcDbArc
 50
0
 51
26.51991546579238
  0
ARC
  5
1E7
100
AcDbEntity
  8
1粗实线-A (轮廓线)
  6
CONTINUOUS
 62
    7
370
   -1
100
AcDbCircle
 10
300.3955249498401
 20
151.00999653572
 40
0.69999999954
100
AcDbArc
 50
1.042204158021965e-10
 51
52.61680158210006
  0
ARC
  5
1E8
100
AcDbEntity
  8
1粗实线-A (轮廓线)
  6
CONTINUOUS
 62
    7
370
   -1
100
AcDbCircle
 10
301.2455249490999
 20
152.1224263073
 40
0.69999999954
100
AcDbArc
 50
180
 51
232.6168015821978
  0
ARC
  5
1E9
100
AcDbEntity
  8
1粗实线-A (轮廓线)
  6
CONTINUOUS
 62
    7
370
   -1
100
AcDbCircle
 10
301.2455249490999
 20
157.5828766614601
 40
0.69999999954
100
AcDbArc
 50
127.3831984178999
 51
180
  0
ARC
  5
1EA
100
AcDbEntity
  8
1粗实线-A (轮廓线)
  6
CONTINUOUS
 62
    7
370
   -1
100
AcDbCircle
 10
300.3955249498401
 20
158.6953064330402
 40
0.69999999954
100
AcDbArc
 50
307.3831984179976
 51
0
  0
ARC
  5
1EB
100
AcDbEntity
  8
1粗实线-A (轮廓线)
  6
CONTINUOUS
 62
    7
370
   -1
100
AcDbCircle
 10
300.0469843439
 20
163.7115667180001
 40
0.69999999954
100
AcDbArc
 50
22.0856192668974
 51
81.14845323789928
  0
ARC
  5
1EC
100
AcDbEntity
  8
1粗实线-A (轮廓线)
  6
CONTINUOUS
 62
    7
370
   -1
100
AcDbCircle
 10
300.26240912768
 20
165.0948932020402
 40
0.69999999954
100
AcDbArc
 50
214.4678783007094
 51
261.1484532683948
  0
ARC
  5
1ED
100
AcDbEntity
  8
1粗实线-A (轮廓线)
  6
CONTINUOUS
 62
    7
370
   -1
100
AcDbCircle
 10
298.68777427594
 20
163.4437362503601
 40
0.25000000038
100
AcDbArc
 50
90.00022544590365
 51
206.5199154646971
  0
SPLINE
  5
1EE
100
AcDbEntity
  8
1粗实线-A (轮廓线)
  6
CONTINUOUS
 62
    7
370
   -1
100
AcDbSpline
210
0
220
0
230
0
 70
    8
 71
    3
 72
    9
 73
    5
 74
    0
 42
1e-07
 43
1e-07
 40
0
 40
0
 40
0
 40
0
 40
0.4998393292
 40
1
 40
1
 40
1
 40
1
 10
264.19170612826
 20
145.29824910732
 30
0
 10
264.19184271676
 20
145.2602789318001
 30
0
 10
264.22431994162
 20
145.1813912308002
 30
0
 10
264.3034062884001
 20
145.1499998965801
 30
0
 10
264.3414011171601
 20
145.14999987626
 30
0
  0
SPLINE
  5
1EF
100
AcDbEntity
  8
1粗实线-A (轮廓线)
  6
CONTINUOUS
 62
    7
370
   -1
100
AcDbSpline
210
0
220
0
230
0
 70
    8
 71
    3
 72
    8
 73
    4
 74
    0
 42
1e-07
 43
1e-07
 40
0
 40
0
 40
0
 40
0
 40
1
 40
1
 40
1
 40
1
 10
300.3274142605601
 20
145.6876732002
 30
0
 10
300.8393235898
 20
146.93998847306
 30
0
 10
301.09552494938
 20
148.28304017608
 30
0
 10
301.09552494938
 20
149.69831406384
 30
0
  0
SPLINE
  5
1F0
100
AcDbEntity
  8
1粗实线-A (轮廓线)
  6
CONTINUOUS
 62
    7
370
   -1
100
AcDbSpline
210
0
220
0
230
0
 70
    8
 71
    3
 72
    8
 73
    4
 74
    0
 42
1e-07
 43
1e-07
 40
0
 40
0
 40
0
 40
0
 40
1
 40
1
 40
1
 40
1
 10
265.19552494866
 20
149.69831406384
 30
0
 10
265.19552494866
 20
148.2370896355201
 30
0
 10
265.4686328657401
 20
146.85285328792
 30
0
 10
266.01430567584
 20
145.5659817849602
 30
0
  0
SPLINE
  5
1F1
100
AcDbEntity
  8
1粗实线-A (轮廓线)
  6
CONTINUOUS
 62
    7
370
   -1
100
AcDbSpline
210
0
220
0
230
0
 70
    8
 71
    3
 72
   14
 73
   10
 74
    0
 42
1e-07
 43
1e-07
 40
0
 40
0
 40
0
 40
0
 40
0.2490699778
 40
0.3742415505
 40
0.4993876627
 40
0.6245354320000001
 40
0.7497058097
 40
0.8748572677000001
 40
1
 40
1
 40
1
 40
1
 10
264.1953493493199
 20
161.96633587268
 30
0
 10
264.1952201014201
 20
162.8016430997001
 30
0
 10
264.46571848092
 20
164.0718352456202
 30
0
 10
265.2637662549
 20
165.55135119184
 30
0
 10
266.06858596098
 20
166.5315717714001
 30
0
 10
267.0530247286999
 20
167.3297057656802
 30
0
 10
268.1722388199601
 20
167.9235460943801
 30
0
 10
269.3834035350401
 20
168.2940826583601
 30
0
 10
270.22565402224
 20
168.37778200074
 30
0
 10
270.64533571018
 20
168.3748673253402
 30
0
  0
SPLINE
  5
1F2
100
AcDbEntity
  8
1粗实线-A (轮廓线)
  6
CONTINUOUS
 62
    7
370
   -1
100
AcDbSpline
210
0
220
0
230
0
 70
    8
 71
    3
 72
    9
 73
    5
 74
    0
 42
1e-07
 43
1e-07
 40
0
 40
0
 40
0
 40
0
 40
0.5002003502
 40
1
 40
1
 40
1
 40
1
 10
301.9496481661999
 20
144.30253824124
 30
0
 10
301.9876029797999
 20
144.30253824124
 30
0
 10
302.06658848604
 20
144.3338449198001
 30
0
 10
302.0991412784401
 20
144.4126043939801
 30
0
 10
302.0992932567999
 20
144.4505284964401
 30
0
  0
SPLINE
  5
1F3
100
AcDbEntity
  8
1粗实线-A (轮廓线)
  6
CONTINUOUS
 62
    7
370
   -1
100
AcDbSpline
210
0
220
0
230
0
 70
    8
 71
    3
 72
   15
 73
   11
 74
    0
 42
1e-07
 43
1e-07
 40
0
 40
0
 40
0
 40
0
 40
0.124985121
 40
0.2499903115
 40
0.3750004753
 40
0.4999995689
 40
0.6249971121
 40
0.7500069371
 40
0.8750130615
 40
1
 40
1
 40
1
 40
1
 10
302.0947549524401
 20
161.96681726618
 30
0
 10
302.0947379166601
 20
162.38063612612
 30
0
 10
302.00830419316
 20
163.21050993246
 30
0
 10
301.6402361104001
 20
164.4037745258601
 30
0
 10
301.05517627214
 20
165.5072918768601
 30
0
 10
300.2717719664599
 20
166.48084866228
 30
0
 10
299.3106572567401
 20
167.2795544207202
 30
0
 10
298.2160273606601
 20
167.8811071241402
 30
0
 10
297.0285574546799
 20
168.26742941728
 30
0
 10
296.2002328553001
 20
168.36694634042
 30
0
 10
295.78646838692
 20
168.3740169308001
 30
0
  0
SPLINE
  5
1F4
100
AcDbEntity
  8
1粗实线-A (轮廓线)
  6
CONTINUOUS
 62
    7
370
   -1
100
AcDbSpline
210
0
220
0
230
0
 70
    8
 71
    3
 72
    8
 73
    4
 74
    0
 42
1e-07
 43
1e-07
 40
0
 40
0
 40
0
 40
0
 40
1
 40
1
 40
1
 40
1
 10
267.9193497016599
 20
144.6295305971602
 30
0
 10
267.9566248823801
 20
144.5578990818
 30
0
 10
267.9987300432799
 20
144.4907384439601
 30
0
 10
268.04567841522
 20
144.4281178529201
 30
0
  0
SPLINE
  5
1F5
100
AcDbEntity
  8
1粗实线-A (轮廓线)
  6
CONTINUOUS
 62
    7
370
   -1
100
AcDbSpline
210
0
220
0
230
0
 70
    8
 71
    3
 72
    8
 73
    4
 74
    0
 42
1e-07
 43
1e-07
 40
0
 40
0
 40
0
 40
0
 40
1
 40
1
 40
1
 40
1
 10
269.4462513494
 20
143.7905417442802
 30
0
 10
268.97388945948
 20
143.82101428176
 30
0
 10
268.59335849334
 20
143.9441547822402
 30
0
 10
268.3106148347999
 20
144.16073011998
 30
0
  0
SPLINE
  5
1F6
100
AcDbEntity
  8
1粗实线-A (轮廓线)
  6
CONTINUOUS
 62
    7
370
   -1
100
AcDbSpline
210
0
220
0
230
0
 70
    8
 71
    3
 72
    8
 73
    4
 74
    0
 42
1e-07
 43
1e-07
 40
0
 40
0
 40
0
 40
0
 40
1
 40
1
 40
1
 40
1
 10
266.7455249474601
 20
150.96697491234
 30
0
 10
266.7597050664201
 20
149.9604895948602
 30
0
 10
266.91109096888
 20
149.0030495209201
 30
0
 10
267.20039448222
 20
148.0937394167601
 30
0
  0
SPLINE
  5
1F7
100
AcDbEntity
  8
1粗实线-A (轮廓线)
  6
CONTINUOUS
 62
    7
370
   -1
100
AcDbSpline
210
0
220
0
230
0
 70
    8
 71
    3
 72
    8
 73
    4
 74
    0
 42
1e-07
 43
1e-07
 40
0
 40
0
 40
0
 40
0
 40
1
 40
1
 40
1
 40
1
 10
267.4880769091401
 20
151.0937362514002
 30
0
 10
267.4693855723801
 20
150.1285143210401
 30
0
 10
267.5879308598001
 20
149.2156067107401
 30
0
 10
267.8466396819799
 20
148.3437362523
 30
0
  0
SPLINE
  5
1F8
100
AcDbEntity
  8
1粗实线-A (轮廓线)
  6
CONTINUOUS
 62
    7
370
   -1
100
AcDbSpline
210
0
220
0
230
0
 70
    8
 71
    3
 72
    8
 73
    4
 74
    0
 42
1e-07
 43
1e-07
 40
0
 40
0
 40
0
 40
0
 40
1
 40
1
 40
1
 40
1
 10
267.9151205153
 20
144.63771739562
 30
0
 10
267.8844864007999
 20
144.697454378
 30
0
 10
267.8571794043601
 20
144.7602696244801
 30
0
 10
267.8331919618599
 20
144.82612358726
 30
0
  0
SPLINE
  5
1F9
100
AcDbEntity
  8
1粗实线-A (轮廓线)
  6
CONTINUOUS
 62
    7
370
   -1
100
AcDbSpline
210
0
220
0
230
0
 70
    8
 71
    3
 72
    8
 73
    4
 74
    0
 42
1e-07
 43
1e-07
 40
0
 40
0
 40
0
 40
0
 40
1
 40
1
 40
1
 40
1
 10
267.8200656558799
 20
144.8634378560402
 30
0
 10
267.7263224753201
 20
145.1395449035201
 30
0
 10
267.68894579874
 20
145.4671460542601
 30
0
 10
267.7074058431001
 20
145.84347235774
 30
0
  0
SPLINE
  5
1FA
100
AcDbEntity
  8
1粗实线-A (轮廓线)
  6
CONTINUOUS
 62
    7
370
   -1
100
AcDbSpline
210
0
220
0
230
0
 70
    8
 71
    3
 72
    8
 73
    4
 74
    0
 42
1e-07
 43
1e-07
 40
0
 40
0
 40
0
 40
0
 40
1
 40
1
 40
1
 40
1
 10
299.0371665261
 20
146.79373565152
 30
0
 10
299.3761108444
 20
147.79526574396
 30
0
 10
299.5455249480401
 20
148.8532030464202
 30
0
 10
299.5455249480401
 20
149.96918679108
 30
0
  0
SPLINE
  5
1FB
100
AcDbEntity
  8
1粗实线-A (轮廓线)
  6
CONTINUOUS
 62
    7
370
   -1
100
AcDbSpline
210
0
220
0
230
0
 70
    8
 71
    3
 72
    9
 73
    5
 74
    0
 42
1e-07
 43
1e-07
 40
0
 40
0
 40
0
 40
0
 40
0.7837584956
 40
1
 40
1
 40
1
 40
1
 10
298.0322560060799
 20
146.29253632372
 30
0
 10
298.5657492647201
 20
147.4283391854602
 30
0
 10
298.85892080436
 20
148.9774691123401
 30
0
 10
298.77803382872
 20
150.7098389369002
 30
0
 10
298.74460454582
 20
151.0937362514002
 30
0
  0
LINE
  5
1FC
100
AcDbEntity
  8
1粗实线-A (轮廓线)
  6
CONTINUOUS
 62
    7
370
   -1
100
AcDbLine
 10
268.31061488814
 20
144.16072988884
 11
268.4697468254001
 21
143.88315258776
  0
SPLINE
  5
1FD
100
AcDbEntity
  8
1粗实线-A (轮廓线)
  6
CONTINUOUS
 62
    7
370
   -1
100
AcDbSpline
210
0
220
0
230
0
 70
    8
 71
    3
 72
   14
 73
   10
 74
    0
 42
1e-07
 43
1e-07
 40
0
 40
0
 40
0
 40
0
 40
0.2490435904
 40
0.3742239469
 40
0.499376515
 40
0.6245271926
 40
0.7497106156000001
 40
0.8748646296
 40
1
 40
1
 40
1
 40
1
 10
264.6705304030199
 20
161.9274113861401
 30
0
 10
264.6628323158
 20
162.7039675140001
 30
0
 10
264.91109121984
 20
163.8866732893
 30
0
 10
265.64635974168
 20
165.2655631121602
 30
0
 10
266.39130291016
 20
166.1800599522002
 30
0
 10
267.3048698155601
 20
166.92452905762
 30
0
 10
268.3448176340601
 20
167.4785268523401
 30
0
 10
269.4703557309601
 20
167.8238485289801
 30
0
 10
270.2535332248001
 20
167.90540627544
 30
0
 10
270.6437140903599
 20
167.90060062084
 30
0
  0
SPLINE
  5
1FE
100
AcDbEntity
  8
1粗实线-A (轮廓线)
  6
CONTINUOUS
 62
    7
370
   -1
100
AcDbSpline
210
0
220
0
230
0
 70
    8
 71
    3
 72
   14
 73
   10
 74
    0
 42
1e-07
 43
1e-07
 40
0
 40
0
 40
0
 40
0
 40
0.2490435884
 40
0.3742239453
 40
0.4993765133
 40
0.6245271914
 40
0.7497106144
 40
0.8748646298
 40
1
 40
1
 40
1
 40
1
 10
295.64733122044
 20
167.90060062084
 30
0
 10
296.4238872086
 20
167.9082988477601
 30
0
 10
297.60659274768
 20
167.6600395601801
 30
0
 10
298.9854822632001
 20
166.924771112
 30
0
 10
299.89997890512
 20
166.17982800956
 30
0
 10
300.6444478810001
 20
165.2662612514802
 30
0
 10
301.1984455614199
 20
164.2263136057002
 30
0
 10
301.5437673295
 20
163.1007757221602
 30
0
 10
301.62532490324
 20
162.31759835532
 30
0
 10
301.6205193502401
 20
161.9274175558002
 30
0
  0
LINE
  5
1FF
100
AcDbEntity
  8
1粗实线-A (轮廓线)
  6
CONTINUOUS
 62
    7
370
   -1
100
AcDbLine
 10
266.096745256096
 20
126.0155196622962
 11
266.1226062923599
 21
125.9754888629001
  0
LINE
  5
200
100
AcDbEntity
  8
1粗实线-A (轮廓线)
  6
CONTINUOUS
 62
    7
370
   -1
100
AcDbLine
 10
270.5255777810401
 20
123.5269355812001
 11
270.5695879134971
 21
123.5261400930126
  0
SPLINE
  5
201
100
AcDbEntity
  8
1粗实线-A (轮廓线)
  6
CONTINUOUS
 62
    7
370
   -1
100
AcDbSpline
210
0
220
0
230
0
 70
    8
 71
    3
 72
    9
 73
    5
 74
    0
 42
1e-07
 43
1e-07
 40
0
 40
0
 40
0
 40
0
 40
0.5004677977
 40
1
 40
1
 40
1
 40
1
 10
266.0448127827201
 20
145.43421385952
 30
0
 10
266.04570676874
 20
145.3751531623001
 30
0
 10
266.01353365554
 20
145.2539322820601
 30
0
 10
265.91744194018
 20
145.1711484623602
 30
0
 10
265.8629542538799
 20
145.1486312531401
 30
0
  0
SPLINE
  5
202
100
AcDbEntity
  8
1粗实线-A (轮廓线)
  6
CONTINUOUS
 62
    7
370
   -1
100
AcDbSpline
210
0
220
0
230
0
 70
    8
 71
    3
 72
    8
 73
    4
 74
    0
 42
1e-07
 43
1e-07
 40
0
 40
0
 40
0
 40
0
 40
1
 40
1
 40
1
 40
1
 10
265.8629542538799
 20
145.1486312531401
 30
0
 10
265.82874367206
 20
145.1344936207601
 30
0
 10
265.7910271511
 20
145.1271250756802
 30
0
 10
265.7540104534801
 20
145.12710508334
 30
0
  0
LINE
  5
203
100
AcDbEntity
  8
1粗实线-A (轮廓线)
  6
CONTINUOUS
 62
    7
370
   -1
100
AcDbLine
 10
267.7394572776
 20
144.7900302482201
 11
267.91512045688
 21
144.63771733974
  0
LINE
  5
204
100
AcDbEntity
  8
1粗实线-A (轮廓线)
  6
CONTINUOUS
 62
    7
370
   -1
100
AcDbLine
 10
295.7837243665001
 20
168.37926194698
 11
295.7864690854201
 21
168.37412523386
  0
LINE
  5
205
100
AcDbEntity
  8
1粗实线-A (轮廓线)
  6
CONTINUOUS
 62
    7
370
   -1
100
AcDbLine
 10
268.4819895619
 20
143.82967305286
 11
268.46974718862
 21
143.8831526157002
  0
SPLINE
  5
206
100
AcDbEntity
  8
1粗实线-A (轮廓线)
  6
CONTINUOUS
 62
    7
370
   -1
100
AcDbSpline
210
0
220
0
230
0
 70
    8
 71
    3
 72
   11
 73
    7
 74
    0
 42
1e-07
 43
1e-07
 40
0
 40
0
 40
0
 40
0
 40
0.2497453474
 40
0.4994597053
 40
0.7497397187
 40
1
 40
1
 40
1
 40
1
 10
299.79904163684
 20
144.2771521680601
 30
0
 10
299.71231106608
 20
144.2729112951602
 30
0
 10
299.53164735578
 20
144.31149623704
 30
0
 10
299.34035011582
 20
144.50789230602
 30
0
 10
299.27014858236
 20
144.7698875529202
 30
0
 10
299.31268293722
 20
144.9476343297601
 30
0
 10
299.35362654596
 20
145.0244127309401
 30
0
  0
LINE
  5
207
100
AcDbEntity
  8
1粗实线-A (轮廓线)
  6
CONTINUOUS
 62
    7
370
   -1
100
AcDbLine
 10
267.7394575569999
 20
144.79003097212
 11
267.6926121515801
 21
144.81425344336
  0
ELLIPSE
  5
208
100
AcDbEntity
  8
1粗实线-A (轮廓线)
  6
CONTINUOUS
 62
    7
370
   -1
100
AcDbEllipse
 10
302.1153161356001
 20
131.0525382414202
 30
0
 11
0.15057297546
 21
0
 31
0
 40
0.9961946981000002
 41
1.000444171950221e-10
 42
1.570796326700141
  0
ELLIPSE
  5
209
100
AcDbEntity
  8
1粗实线-A (轮廓线)
  6
CONTINUOUS
 62
    7
370
   -1
100
AcDbEllipse
 10
264.1757337624401
 20
129.00000000208
 30
0
 11
-0.15057297546
 21
0
 31
0
 40
0.9961946981000002
 41
4.712388980379405
 42
6.283185303679548
  0
ELLIPSE
  5
20A
100
AcDbEntity
  8
1粗实线-A (轮廓线)
  6
CONTINUOUS
 62
    7
370
   -1
100
AcDbEllipse
 10
286.29552494822
 20
124.4756061375
 30
0
 11
0
 21
0.50000000076
 31
0
 40
1
 41
1.570796326779577
 42
2.366195156979595
  0
ELLIPSE
  5
20B
100
AcDbEntity
  8
1粗实线-A (轮廓线)
  6
CONTINUOUS
 62
    7
370
   -1
100
AcDbEllipse
 10
279.99552494982
 20
124.4756061375
 30
0
 11
0
 21
0.50000000076
 31
0
 40
1
 41
3.916990150179592
 42
4.712388980379574
  0
ENDSEC
  0
SECTION
  2
OBJECTS
  0
DICTIONARY
  5
C
330
0
100
AcDbDictionary
281
    1
  3
ACAD_GROUP
350
D
  0
DICTIONARY
  5
D
330
C
100
AcDbDictionary
281
    1
  0
PLOTSETTINGS
  5
20C
100
AcDbPlotSettings
  6
1x1
 40
0
 41
0
 42
0
 43
0
  0
ENDSEC
  0
EOF
